<?xml version="1.0" encoding="UTF-8" standalone="no"?>
<!DOCTYPE svg PUBLIC "-//W3C//DTD SVG 1.1//EN" "http://www.w3.org/Graphics/SVG/1.1/DTD/svg11.dtd">
<svg width="100%" height="100%" viewBox="0 0 69 71" version="1.1" xmlns="http://www.w3.org/2000/svg" xmlns:xlink="http://www.w3.org/1999/xlink" xml:space="preserve" xmlns:serif="http://www.serif.com/" style="fill-rule:evenodd;clip-rule:evenodd;stroke-miterlimit:10;">
    <g id="Boy-1-" serif:id="Boy 1 " transform="matrix(1,0,0,1,-15.5,-33)">
        <g id="face" transform="matrix(0.937009,0,0,0.937009,3.348862,12.64073)">
            <g id="_-Path-" serif:id="&lt;Path&gt;" transform="matrix(0.628202,0,0,0.628202,18.637663,25.485649)">
                <path d="M69.42,79.73C69.42,79.73 73.07,78.81 74.74,81.4C76.41,83.98 76.19,88.65 73.72,90.14C71.81,91.3 66.61,90.74 66.61,90.74L69.42,79.73Z" style="fill:rgb(247,180,145);fill-rule:nonzero;"/>
            </g>
            <g id="_-Path-1" serif:id="&lt;Path&gt;" transform="matrix(0.628202,0,0,0.628202,18.637663,25.485649)">
                <path d="M70.25,82.27C70.25,82.27 72.21,81.78 73.11,83.17C74.01,84.56 73.89,87.07 72.56,87.87C71.53,88.49 68.74,88.19 68.74,88.19L70.25,82.27Z" style="fill:rgb(248,172,133);fill-rule:nonzero;"/>
            </g>
            <g id="_-Path-2" serif:id="&lt;Path&gt;" transform="matrix(0.628202,0,0,0.628202,18.637663,25.485649)">
                <path d="M28.11,79.73C28.11,79.73 24.5,78.81 22.84,81.4C21.19,83.98 21.42,88.65 23.86,90.14C25.75,91.3 30.89,90.74 30.89,90.74L28.11,79.73Z" style="fill:rgb(247,180,145);fill-rule:nonzero;"/>
            </g>
            <g id="_-Path-3" serif:id="&lt;Path&gt;" transform="matrix(0.628202,0,0,0.628202,18.637663,25.485649)">
                <path d="M27.29,82.27C27.29,82.27 25.35,81.78 24.46,83.17C23.57,84.56 23.69,87.07 25,87.87C26.02,88.49 28.79,88.19 28.79,88.19L27.29,82.27Z" style="fill:rgb(248,172,133);fill-rule:nonzero;"/>
            </g>
            <g id="_-Path-4" serif:id="&lt;Path&gt;" transform="matrix(0.628202,0,0,0.628202,18.637663,25.485649)">
                <path d="M71.1,65.52C71.1,65.52 71.48,82.84 71.1,85.88C70.72,88.92 70.56,91.96 67.52,95.38C64.49,98.8 59.39,99.94 56.92,100.32C54.46,100.7 44.35,101.23 40.32,100.32C36.3,99.41 32.34,98.04 29.91,95.45C27.48,92.87 26.55,88.93 26.49,86.18C26.44,83.44 26.11,61.63 26.49,60.04C26.87,58.45 42.32,51.76 48.38,51.69C54.43,51.61 71.1,65.52 71.1,65.52Z" style="fill:rgb(242,184,157);fill-rule:nonzero;"/>
            </g>
            <g id="_-Path-5" serif:id="&lt;Path&gt;" transform="matrix(0.628202,0,0,0.628202,18.637663,25.485649)">
                <path d="M37.92,89.98C37.92,90.94 36.83,91.71 35.49,91.71C34.14,91.71 33.05,90.94 33.05,89.98C33.05,89.03 34.14,88.26 35.49,88.26C36.83,88.26 37.92,89.03 37.92,89.98Z" style="fill:rgb(244,138,115);fill-rule:nonzero;"/>
            </g>
            <g id="_-Path-6" serif:id="&lt;Path&gt;" transform="matrix(0.628202,0,0,0.628202,18.637663,25.485649)">
                <path d="M64,89.98C64,90.94 63.03,91.71 61.83,91.71C60.62,91.71 59.65,90.94 59.65,89.98C59.65,89.03 60.62,88.26 61.83,88.26C63.03,88.26 64,89.03 64,89.98Z" style="fill:rgb(244,138,115);fill-rule:nonzero;"/>
            </g>
            <g id="_-Path-7" serif:id="&lt;Path&gt;" transform="matrix(0.628202,0,0,0.628202,18.637663,25.485649)">
                <path d="M55.41,74.08C55.41,74.08 56.06,73.86 57.09,73.71C57.6,73.63 58.22,73.58 58.88,73.62C59.213,73.64 59.553,73.683 59.9,73.75C60.253,73.817 60.6,73.923 60.94,74.07C61.3,74.21 61.57,74.35 61.89,74.51C62.203,74.657 62.503,74.817 62.79,74.99C63.34,75.34 63.82,75.76 64.17,76.17C64.53,76.58 64.77,76.98 64.87,77.29C64.98,77.6 64.99,77.78 64.99,77.78L64.9,77.82C64.9,77.82 64.78,77.69 64.57,77.49C64.35,77.283 64.04,77.04 63.64,76.76C63.227,76.493 62.753,76.193 62.22,75.86C61.967,75.687 61.703,75.507 61.43,75.32C61.17,75.14 60.85,74.93 60.59,74.79C59.49,74.18 58.11,74.07 57.11,74.05C56.1,74.05 55.43,74.18 55.43,74.18L55.41,74.08Z" style="fill:rgb(35,31,32);fill-rule:nonzero;"/>
            </g>
            <g id="_-Path-8" serif:id="&lt;Path&gt;" transform="matrix(0.628202,0,0,0.628202,18.637663,25.485649)">
                <path d="M43.16,75.57C43.16,75.57 42.52,75.29 41.51,75.12C40.99,75.027 40.41,74.967 39.77,74.94C39.45,74.933 39.123,74.937 38.79,74.95C38.463,74.97 38.127,75.003 37.78,75.05C37.13,75.15 36.5,75.35 35.92,75.55C35.327,75.73 34.79,75.913 34.31,76.1C33.38,76.46 32.73,76.77 32.73,76.77L32.66,76.7C32.66,76.7 33.03,76.04 33.93,75.4C34.37,75.08 34.94,74.76 35.6,74.55C35.933,74.457 36.28,74.387 36.64,74.34C37,74.293 37.363,74.263 37.73,74.25C38.06,74.24 38.44,74.24 38.79,74.26C39.143,74.287 39.487,74.323 39.82,74.37C40.48,74.46 41.09,74.61 41.59,74.78C42.6,75.11 43.21,75.48 43.21,75.48L43.16,75.57Z" style="fill:rgb(35,31,32);fill-rule:nonzero;"/>
            </g>
            <g id="_-Path-9" serif:id="&lt;Path&gt;" transform="matrix(0.628202,0,0,0.628202,18.637663,25.485649)">
                <path d="M43.54,91L54.53,91C54.53,91 55.19,96.06 52.2,97.58C49.21,99.1 46.83,98.6 45.26,97.02C43.69,95.45 43.54,91 43.54,91Z" style="fill:rgb(0,0,1);fill-rule:nonzero;"/>
            </g>
            <g id="_-Path-10" serif:id="&lt;Path&gt;" transform="matrix(0.628202,0,0,0.628202,18.637663,25.485649)">
                <path d="M54.34,94.47C53.18,93.73 51.43,92.97 49.11,92.92C46.96,92.88 45.28,93.72 44.09,94.65C44.34,95.59 44.72,96.48 45.26,97.02C46.83,98.6 49.21,99.1 52.2,97.58C53.44,96.95 54.05,95.71 54.34,94.47Z" style="fill:rgb(242,119,116);fill-rule:nonzero;"/>
            </g>
        </g>
        <g id="rightEyeOpened" transform="matrix(0.588631,0,0,0.588631,20.812515,36.521007)">
            <path id="_-Path-11" serif:id="&lt;Path&gt;" d="M60.79,83.47C60.79,85.87 59.6,87.81 58.14,87.81C56.67,87.81 55.49,85.87 55.49,83.47C55.49,81.08 56.67,79.14 58.14,79.14C59.6,79.14 60.79,81.08 60.79,83.47Z" style="fill:rgb(24,17,17);fill-rule:nonzero;"/>
            <path id="_-Path-12" serif:id="&lt;Path&gt;" d="M59.96,81.93C59.96,82.51 59.45,82.97 58.81,82.97C58.18,82.97 57.67,82.51 57.67,81.93C57.67,81.35 58.18,80.89 58.81,80.89C59.45,80.89 59.96,81.35 59.96,81.93Z" style="fill:rgb(254,254,254);fill-rule:nonzero;"/>
            <path id="_-Path-13" serif:id="&lt;Path&gt;" d="M57.94,82.84C57.94,83.21 57.65,83.5 57.28,83.5C56.92,83.5 56.63,83.21 56.63,82.84C56.63,82.48 56.92,82.18 57.28,82.18C57.65,82.18 57.94,82.48 57.94,82.84Z" style="fill:rgb(254,254,254);fill-rule:nonzero;"/>
        </g>
        <g id="leftEyeOpened" transform="matrix(0.588631,0,0,0.588631,20.812515,36.521007)">
            <path id="_-Path-14" serif:id="&lt;Path&gt;" d="M40.79,83.47C40.79,85.87 39.6,87.81 38.14,87.81C36.67,87.81 35.49,85.87 35.49,83.47C35.49,81.08 36.67,79.14 38.14,79.14C39.6,79.14 40.79,81.08 40.79,83.47Z" style="fill:rgb(24,17,17);fill-rule:nonzero;"/>
            <path id="_-Path-15" serif:id="&lt;Path&gt;" d="M39.96,81.93C39.96,82.51 39.45,82.97 38.81,82.97C38.18,82.97 37.67,82.51 37.67,81.93C37.67,81.35 38.18,80.89 38.81,80.89C39.45,80.89 39.96,81.35 39.96,81.93Z" style="fill:rgb(254,254,254);fill-rule:nonzero;"/>
            <path id="_-Path-16" serif:id="&lt;Path&gt;" d="M37.94,82.84C37.94,83.21 37.65,83.5 37.28,83.5C36.92,83.5 36.63,83.21 36.63,82.84C36.63,82.48 36.92,82.18 37.28,82.18C37.65,82.18 37.94,82.48 37.94,82.84Z" style="fill:rgb(254,254,254);fill-rule:nonzero;"/>
        </g>
        <g id="rightEyeClosed" transform="matrix(0.51697,0,0,0.51697,23.386633,42.534864)">
            <path d="M34.32,79.85L42.58,84.01L34.32,87.1" style="fill:none;fill-rule:nonzero;stroke:rgb(35,31,32);stroke-width:1px;"/>
        </g>
        <g id="leftEyeClosed" transform="matrix(0.51697,0,0,0.51697,24.323641,42.6822)">
            <path d="M63.32,79.57L55.17,83.72L63.32,86.81" style="fill:none;fill-rule:nonzero;stroke:rgb(35,31,32);stroke-width:1px;"/>
        </g>
        <g id="halloweenMask02" transform="matrix(0.937009,0,0,0.937009,3.348862,6.081669)">
            <g transform="matrix(0.186883,0,0,0.186883,55.267926,79.594722)">
                <path d="M0,46.013C-17.941,46.013 -17.941,18.166 0,18.166C17.941,18.166 17.979,46.013 0,46.013M-70.756,46.013C-88.735,46.013 -88.735,18.166 -70.756,18.166C-52.815,18.166 -52.815,46.013 -70.756,46.013M34.574,-1.57C34.388,-2.018 34.126,-2.541 33.864,-3.064C29.454,-12.185 19.398,-17.007 9.531,-15.025C-7.551,-11.624 -34.762,-7.027 -51.208,-8.036C-62.421,-8.708 -73.747,-9.531 -84.885,-11.325C-96.061,-13.119 -106.901,-6.615 -110.153,4.224C-111.386,8.186 -112.47,12.186 -113.405,16.222C-115.273,23.847 -116.694,31.772 -116.769,39.546C-116.769,41.528 -116.246,43.471 -115.087,45.041C-107.499,55.394 -93.557,59.843 -80.138,61.3C-71.953,62.197 -63.318,63.02 -56.516,57.675C-53.04,54.909 -50.46,51.731 -47.134,49.19C-45.489,47.919 -43.62,46.835 -41.377,46.05C-34.986,43.77 -29.416,44.667 -24.146,46.648C-14.839,50.124 -6.279,56.927 4.373,55.955C15.923,54.983 27.323,52.479 37.901,48.143C41.9,46.498 44.517,42.574 44.33,38.276C43.694,24.371 39.62,10.354 34.574,-1.57" style="fill:rgb(132,186,80);fill-rule:nonzero;"/>
            </g>
            <g transform="matrix(0.186883,0,0,0.186883,62.351405,89.89967)">
                <path d="M0,-12.013C-10.586,-7.686 -21.979,-5.18 -33.535,-4.201C-44.17,-3.256 -52.725,-10.062 -62.036,-13.513C-67.329,-15.498 -72.906,-16.396 -79.287,-14.127C-81.508,-13.324 -83.399,-12.237 -85.053,-10.96C-88.362,-8.455 -90.961,-5.242 -94.412,-2.5C-101.218,2.841 -109.867,2.037 -118.043,1.139C-131.474,-0.309 -145.392,-4.773 -152.988,-15.129C-153.874,-16.337 -154.294,-17.79 -154.482,-19.275C-154.558,-18.042 -154.656,-16.807 -154.667,-15.579C-154.686,-13.632 -154.141,-11.673 -152.988,-10.102C-145.392,0.254 -131.474,4.718 -118.043,6.166C-109.867,7.065 -101.218,7.868 -94.412,2.527C-90.961,-0.214 -88.362,-3.429 -85.053,-5.933C-83.399,-7.209 -81.508,-8.296 -79.287,-9.1C-72.906,-11.368 -67.329,-10.471 -62.036,-8.486C-52.725,-5.035 -44.17,1.771 -33.535,0.825C-21.979,-0.154 -10.586,-2.659 0,-6.986C4.008,-8.625 6.626,-12.554 6.424,-16.88C6.377,-17.88 6.276,-18.88 6.195,-19.881C5.633,-16.401 3.361,-13.388 0,-12.013" style="fill:rgb(113,158,68);fill-rule:nonzero;"/>
            </g>
            <g transform="matrix(-0.186883,0,0,0.186883,42.044933,86.011795)">
                <path d="M0.015,7.177C8.017,7.174 12.428,1.64 13.296,-4.491C14.371,3.131 9.962,11.673 0.015,11.676C-9.94,11.679 -14.356,3.125 -13.276,-4.502C-12.41,1.636 -7.996,7.179 0.015,7.177" style="fill:rgb(113,158,68);fill-rule:nonzero;"/>
            </g>
            <g transform="matrix(0.186883,0,0,0.186883,43.340817,79.796462)">
                <path d="M0,10.621C9.997,9.182 6.675,3.476 -0.241,0.982C-4.221,-0.454 -9.06,-0.968 -13.531,-0.874C-15.808,-0.826 -18.149,-0.567 -20.068,0.267C-21.987,1.1 -23.394,2.611 -23.125,4.148C-22.869,5.602 -21.237,6.766 -19.519,7.652C-14.042,10.476 -6.727,11.589 0,10.621" style="fill:rgb(47,104,93);fill-rule:nonzero;"/>
            </g>
            <g transform="matrix(0.186883,0,0,0.186883,53.865576,79.783268)">
                <path d="M0,10.779C-10.026,9.441 -6.83,3.702 0.03,1.138C3.979,-0.337 8.806,-0.9 13.278,-0.851C15.556,-0.826 17.903,-0.591 19.84,0.223C21.777,1.037 23.217,2.534 22.98,4.073C22.758,5.53 21.151,6.711 19.452,7.614C14.038,10.493 6.748,11.679 0,10.779" style="fill:rgb(47,104,93);fill-rule:nonzero;"/>
            </g>
            <g transform="matrix(-0.020602,-0.185744,-0.185744,0.020602,51.0915,82.31152)">
                <path d="M-27.339,4.828C-24.783,9.87 -23.276,15.314 -24.827,21.907C-25.381,24.203 -26.253,26.202 -27.339,27.987L5.563,12.497L-27.339,4.828Z" style="fill:rgb(30,27,40);fill-rule:nonzero;"/>
            </g>
            <g transform="matrix(0.186883,0,0,0.186883,60.82659,88.389618)">
                <path d="M0,-28.841C-0.232,-28.817 -0.063,-26.849 -0.396,-23.742C-0.716,-20.649 -1.692,-16.384 -3.999,-12.249C-6.305,-8.113 -9.42,-5.042 -11.884,-3.145C-14.352,-1.228 -16.115,-0.339 -16.014,-0.128C-15.95,0.029 -14.005,-0.532 -11.28,-2.302C-8.57,-4.046 -5.153,-7.165 -2.719,-11.535C-0.28,-15.903 0.578,-20.45 0.638,-23.672C0.712,-26.92 0.167,-28.87 0,-28.841" style="fill:rgb(47,104,93);fill-rule:nonzero;"/>
            </g>
            <g transform="matrix(0.175417,-0.064454,-0.064454,-0.175417,59.210642,88.264057)">
                <path d="M-1.213,-0.208C-0.813,-0.247 -0.336,1.31 -0.339,3.276C-0.337,5.241 -0.814,6.799 -1.213,6.76C-1.619,6.721 -1.802,5.164 -1.805,3.276C-1.802,1.387 -1.62,-0.169 -1.213,-0.208" style="fill:rgb(47,104,93);fill-rule:nonzero;"/>
            </g>
            <g transform="matrix(0.008484,-0.18669,-0.18669,-0.008484,60.170849,85.483984)">
                <path d="M-4.12,-3.938C-3.715,-3.933 -3.387,-2.089 -3.387,0.181C-3.387,2.452 -3.715,4.296 -4.12,4.3C-4.524,4.306 -4.853,2.461 -4.852,0.181C-4.853,-2.099 -4.525,-3.943 -4.12,-3.938" style="fill:rgb(47,104,93);fill-rule:nonzero;"/>
            </g>
            <g transform="matrix(0.09151,-0.162945,-0.162945,-0.09151,61.13702,84.235873)">
                <path d="M-2.117,-1.281C-1.712,-1.236 -1.5,-0.152 -1.497,1.145C-1.499,2.441 -1.711,3.525 -2.117,3.57C-2.516,3.615 -2.966,2.532 -2.964,1.145C-2.966,-0.243 -2.517,-1.326 -2.117,-1.281" style="fill:rgb(47,104,93);fill-rule:nonzero;"/>
            </g>
            <g transform="matrix(0.186883,0,0,0.186883,34.525475,78.686322)">
                <path d="M0,21.845C0.227,21.9 0.733,19.992 2.099,17.181C3.446,14.378 5.808,10.695 9.378,7.585C12.947,4.474 16.918,2.637 19.878,1.687C22.85,0.718 24.81,0.477 24.786,0.244C24.779,0.075 22.758,-0.055 19.596,0.689C16.456,1.412 12.185,3.192 8.415,6.48C4.642,9.765 2.295,13.753 1.149,16.765C-0.02,19.796 -0.167,21.815 0,21.845" style="fill:rgb(47,104,93);fill-rule:nonzero;"/>
            </g>
            <g transform="matrix(-0.186878,0.001287,0.001287,0.186878,38.01363,79.624818)">
                <path d="M-0.264,-6.973C0.135,-7.012 0.612,-5.455 0.611,-3.489C0.613,-1.523 0.135,0.034 -0.264,-0.005C-0.671,-0.043 -0.853,-1.601 -0.856,-3.489C-0.853,-5.378 -0.671,-6.934 -0.264,-6.973" style="fill:rgb(47,104,93);fill-rule:nonzero;"/>
            </g>
            <g transform="matrix(-0.071159,0.172805,0.172805,0.071159,36.850554,79.406158)">
                <path d="M3.816,-5.689C4.221,-5.684 4.549,-3.839 4.549,-1.569C4.549,0.7 4.221,2.544 3.816,2.55C3.411,2.554 3.083,0.71 3.083,-1.57C3.083,-3.85 3.412,-5.694 3.816,-5.689" style="fill:rgb(47,104,93);fill-rule:nonzero;"/>
            </g>
            <g transform="matrix(-0.141265,0.12235,0.12235,0.141265,35.544398,81.454101)">
                <path d="M1.656,-4.221C2.061,-4.176 2.273,-3.093 2.275,-1.796C2.273,-0.498 2.062,0.585 1.656,0.631C1.257,0.675 0.807,-0.408 0.808,-1.795C0.808,-3.183 1.258,-4.265 1.656,-4.221" style="fill:rgb(47,104,93);fill-rule:nonzero;"/>
            </g>
            <g transform="matrix(-0.186883,0,0,0.186883,55.266768,86.011795)">
                <path d="M-0.014,7.177C-8.016,7.174 -12.427,1.64 -13.295,-4.491C-14.37,3.131 -9.96,11.673 -0.014,11.676C9.941,11.679 14.356,3.125 13.276,-4.502C12.411,1.636 7.997,7.179 -0.014,7.177" style="fill:rgb(113,158,68);fill-rule:nonzero;"/>
            </g>
        </g>
        <g id="headsets" transform="matrix(0.021,0,0,0.021,49.866831,89.382824)">
            <g transform="matrix(1,0,0,1,-2000,-2000)">
                <g>
                    <g>
                        <g>
                            <g>
                                <g>
                                    <path d="M2898.473,1523.053C2903.53,1484.306 2906.086,1444.849 2906.086,1405.54C2906.086,908.186 2501.462,503.562 2004.108,503.562C1506.754,503.562 1102.13,908.186 1102.13,1405.54C1102.13,1444.845 1104.686,1484.296 1109.739,1523.053L1022.628,1523.053C1018.018,1484.301 1015.687,1444.831 1015.687,1405.54C1015.687,860.522 1459.091,417.118 2004.109,417.118C2549.095,417.118 2992.475,860.522 2992.475,1405.54C2992.475,1444.831 2990.145,1484.301 2985.534,1523.053L2898.473,1523.053Z" style="fill:rgb(215,229,233);fill-rule:nonzero;"/>
                                </g>
                                <g>
                                    <path d="M2992.491,1405.56C2992.491,1444.816 2990.139,1484.286 2985.52,1523.072L2898.456,1523.072C2903.545,1484.286 2906.068,1444.859 2906.068,1405.56C2906.068,908.187 2501.447,503.566 2004.116,503.566C1506.744,503.566 1102.122,908.187 1102.122,1405.56C1102.122,1444.859 1104.688,1484.286 1109.734,1523.072L1022.627,1523.072C1018.008,1484.286 1015.699,1444.816 1015.699,1405.56C1015.699,860.506 1459.105,417.1 2004.116,417.1C2549.084,417.099 2992.491,860.506 2992.491,1405.56Z" style="fill:rgb(215,229,233);fill-rule:nonzero;"/>
                                </g>
                                <g>
                                    <path d="M2949.728,1405.56C2949.728,1430.448 2948.745,1455.464 2946.778,1480.309L2945.923,1480.309C2947.847,1455.421 2948.83,1430.448 2948.83,1405.56L2906.067,1405.56C2906.067,908.187 2501.446,503.566 2004.115,503.566C1506.743,503.566 1102.121,908.187 1102.121,1405.56L1059.358,1405.56C1059.358,1430.448 1060.341,1455.422 1062.309,1480.309L1061.367,1480.309C1059.443,1455.464 1058.46,1430.448 1058.46,1405.56C1058.46,884.112 1482.666,459.862 2004.114,459.862C2525.522,459.862 2949.728,884.111 2949.728,1405.56Z" style="fill:rgb(160,189,205);fill-rule:nonzero;"/>
                                </g>
                                <g>
                                    <path d="M2999.365,1538.629L2880.727,1538.629L2883.027,1521.036C2887.993,1482.987 2890.512,1444.127 2890.512,1405.538C2890.512,916.776 2492.87,519.137 2004.106,519.137C1515.342,519.137 1117.705,916.776 1117.705,1405.538C1117.705,1444.095 1120.22,1482.955 1125.181,1521.041L1127.476,1538.629L1008.794,1538.629L1007.158,1524.894C1002.485,1485.578 1000.112,1445.421 1000.112,1405.539C1000.112,851.933 1450.503,401.542 2004.106,401.542C2557.685,401.542 3008.051,851.933 3008.051,1405.539C3008.051,1445.436 3005.678,1485.593 3001,1524.894L2999.365,1538.629ZM2916.04,1507.477L2971.602,1507.477C2975.118,1473.798 2976.9,1439.572 2976.9,1405.539C2976.9,869.111 2540.508,432.695 2004.107,432.695C1467.681,432.695 1031.265,869.111 1031.265,1405.539C1031.265,1439.562 1033.047,1473.786 1036.563,1507.477L1092.173,1507.477C1088.443,1473.727 1086.553,1439.518 1086.553,1405.539C1086.553,899.599 1498.164,487.985 2004.107,487.985C2510.05,487.985 2921.666,899.599 2921.666,1405.539C2921.665,1439.542 2919.775,1473.754 2916.04,1507.477Z" style="fill:rgb(81,39,23);fill-rule:nonzero;"/>
                                </g>
                                <g>
                                    <path d="M2735.591,806.883C2893.576,994.185 2973.263,1243.807 2954.081,1488.079C2949.768,1488.097 2941.826,1488.065 2937.491,1488.079L2938.148,1479.68C2940.084,1455.016 2941.061,1430.276 2941.061,1405.538C2941.061,1401.237 2944.547,1397.75 2948.849,1397.75C2953.151,1397.75 2956.637,1401.236 2956.637,1405.538C2956.637,1430.687 2955.643,1455.83 2953.678,1480.898L2945.914,1472.501L2946.786,1472.501L2939.022,1479.681C2961.298,1240.051 2886.735,994.236 2735.591,806.883Z" style="fill:rgb(81,39,23);fill-rule:nonzero;"/>
                                </g>
                                <g>
                                    <path d="M1067.156,1405.538C1067.128,1433.063 1068.418,1460.647 1070.728,1488.078L1054.073,1488.078L1053.612,1480.898C1041.318,1299.605 1081.481,1114.538 1170.348,955.935C1199.684,903.142 1233.983,853.186 1272.584,806.886C1234.986,854.009 1201.849,904.596 1173.773,957.789C1089.146,1116.797 1053.136,1300.503 1069.142,1479.681L1061.376,1472.501L1062.304,1472.501L1054.54,1480.899C1052.57,1455.829 1051.581,1430.685 1051.579,1405.538C1051.771,1395.266 1066.982,1395.33 1067.156,1405.538Z" style="fill:rgb(81,39,23);fill-rule:nonzero;"/>
                                </g>
                                <g>
                                    <g>
                                        <path d="M2004.123,365.575L2004.045,365.575C1805.394,365.58 1606.752,425.334 1419.471,544.819C1387.562,565.177 1371.56,604.379 1381.432,638.446C1386.181,654.833 1447.939,724.139 1518.824,709.682C1600.073,693.112 1642.836,644.469 1661.544,611.328C1757.047,611.328 1820.122,583.889 1878.921,544.559C1914.2,558.588 1958.463,566.905 2004.071,566.909L2004.097,566.909C2049.705,566.905 2093.968,558.588 2129.247,544.559C2188.046,583.889 2251.121,611.328 2346.624,611.328C2365.333,644.469 2408.095,693.112 2489.344,709.682C2560.229,724.139 2621.987,654.832 2626.736,638.446C2636.608,604.379 2620.606,565.177 2588.697,544.819C2401.416,425.334 2202.774,365.581 2004.123,365.575Z" style="fill:rgb(96,128,149);fill-rule:nonzero;"/>
                                    </g>
                                    <g>
                                        <path d="M2626.741,638.439C2621.995,654.817 2560.245,724.136 2489.345,709.682C2408.096,693.133 2365.333,644.469 2346.645,611.328C2251.114,611.328 2188.039,583.874 2129.24,544.575C2093.961,558.601 2049.701,566.897 2004.115,566.897L2004.073,566.897C1958.444,566.897 1914.186,558.601 1878.906,544.575C1820.107,583.874 1757.032,611.328 1661.543,611.328C1642.814,644.469 1600.051,693.09 1518.802,709.682C1447.944,724.136 1386.194,654.817 1381.448,638.439C1378.967,629.972 1378.112,621.163 1378.711,612.397C1380.508,586.012 1395.518,560.141 1419.465,544.832C1606.765,425.353 1805.399,365.571 2004.031,365.571L2004.116,365.571C2202.792,365.571 2401.425,425.354 2588.683,544.832C2612.673,560.141 2627.682,586.012 2629.479,612.397L2629.479,612.44C2630.034,621.206 2629.179,629.972 2626.741,638.439Z" style="fill:rgb(255,190,46);fill-rule:nonzero;"/>
                                    </g>
                                    <g opacity="0.5">
                                        <path d="M1636.177,471.454C1756.089,423.815 1879.173,399.78 2004.03,399.78C2128.959,399.78 2252.066,423.813 2371.982,471.452C2439.165,498.142 2188.481,414.085 2004.123,414.085C1819.765,414.085 1569.004,498.14 1636.177,471.454Z" style="fill:rgb(255,222,150);fill-rule:nonzero;"/>
                                    </g>
                                    <g>
                                        <path d="M2626.741,638.439C2621.995,654.817 2560.245,724.136 2489.345,709.682C2408.096,693.133 2365.333,644.469 2346.645,611.328C2251.114,611.328 2188.039,583.874 2129.24,544.575C2093.961,558.601 2049.701,566.897 2004.115,566.897L2004.073,566.897C1958.444,566.897 1914.186,558.601 1878.906,544.575C1820.107,583.874 1757.032,611.328 1661.543,611.328C1642.814,644.469 1600.051,693.09 1518.802,709.682C1447.944,724.136 1386.194,654.817 1381.448,638.439C1378.967,629.972 1378.112,621.163 1378.711,612.397C1392.439,624.713 1420.405,640.278 1474.8,642.673C1563.19,646.607 1581.364,582.634 1537.533,555.223C1537.533,555.223 1689.982,577.93 1762.551,541.282C1816.688,513.957 1804.201,456.697 1803.774,454.773C1806.297,455.97 1887.161,495.141 2004.075,495.141L2004.117,495.141C2121.031,495.141 2201.894,455.928 2204.418,454.73C2203.991,456.654 2191.504,513.956 2245.642,541.282C2318.21,577.93 2470.659,555.223 2470.659,555.223C2426.827,582.634 2445.001,646.607 2533.392,642.673C2587.787,640.278 2615.71,624.756 2629.481,612.44C2630.034,621.206 2629.179,629.972 2626.741,638.439Z" style="fill:rgb(244,143,42);fill-rule:nonzero;"/>
                                    </g>
                                </g>
                                <g>
                                    <g>
                                        <path d="M1499.624,727.189C1430.161,727.191 1372.51,663.607 1366.47,642.785C1354.761,602.377 1373.526,555.656 1411.094,531.686C1600.054,411.132 1799.546,350.004 2004.043,349.999L2004.096,349.999C2208.622,350.004 2408.115,411.132 2597.075,531.686C2634.643,555.656 2653.408,602.377 2641.699,642.782C2635.029,665.802 2565.327,741.076 2486.23,724.943C2399.751,707.306 2355.839,655.253 2337.768,626.823C2239.726,625.043 2176.293,593.837 2127.324,561.955C2090.815,575.222 2047.417,582.48 2004.096,582.485C1960.751,582.48 1917.353,575.222 1880.844,561.955C1831.874,593.837 1768.442,625.043 1670.4,626.823C1652.329,655.253 1608.418,707.306 1521.933,724.943C1514.399,726.481 1506.943,727.186 1499.624,727.189ZM2004.043,381.151C1805.581,381.156 1611.724,440.641 1427.852,557.95C1401.675,574.652 1388.443,606.68 1396.392,634.11C1401.192,647.284 1455.557,706.686 1515.708,694.42C1598.374,677.56 1635.747,625.34 1647.979,603.67C1650.743,598.777 1655.923,595.75 1661.543,595.75C1760.703,595.75 1820.459,564.922 1870.259,531.612C1874.527,528.763 1879.907,528.194 1884.678,530.084C1919.121,543.78 1961.524,551.327 2004.073,551.331C2046.646,551.326 2089.049,543.78 2123.492,530.084C2128.258,528.192 2133.643,528.758 2137.911,531.612C2187.711,564.923 2247.467,595.75 2346.627,595.75C2352.247,595.75 2357.428,598.777 2360.191,603.67C2372.422,625.34 2409.795,677.559 2492.457,694.42C2552.677,706.698 2606.978,647.284 2611.827,633.949C2619.727,606.681 2606.495,574.652 2580.318,557.951C2396.446,440.641 2202.589,381.156 2004.127,381.152L2004.073,365.576L2004.043,381.151Z" style="fill:rgb(81,39,23);fill-rule:nonzero;"/>
                                    </g>
                                </g>
                                <g>
                                    <path d="M1591.165,582.642C1614.807,590.182 1640.521,596.106 1664.812,596.099L1658.274,626.558C1632.872,615.576 1611.595,600.162 1591.165,582.642Z" style="fill:rgb(81,39,23);fill-rule:nonzero;"/>
                                </g>
                                <g>
                                    <path d="M1822.795,491.057C1842.683,507.353 1864.866,521.616 1888.01,531.909L1869.831,557.208C1850.967,537.151 1835.554,514.964 1822.795,491.057Z" style="fill:rgb(81,39,23);fill-rule:nonzero;"/>
                                </g>
                                <g>
                                    <path d="M2185.396,491.057C2172.637,514.968 2157.226,537.149 2138.36,557.208L2120.181,531.909C2143.329,521.614 2165.506,507.355 2185.396,491.057Z" style="fill:rgb(81,39,23);fill-rule:nonzero;"/>
                                </g>
                            </g>
                            <g>
                                <path d="M2417.014,582.642C2396.576,600.164 2375.31,615.573 2349.902,626.558L2343.364,596.099C2367.663,596.104 2393.365,590.183 2417.014,582.642Z" style="fill:rgb(81,39,23);fill-rule:nonzero;"/>
                            </g>
                        </g>
                        <g transform="matrix(0.986456,0.164028,-0.164028,0.986456,106.10661,-165.591547)">
                            <g>
                                <g>
                                    <path d="M2999.386,1727.503L2918.338,1215.338C2918.338,1215.338 2963.693,1192.304 2986.371,1180.787C3054.953,1145.958 3138.696,1179.901 3163.257,1252.793C3202.977,1370.679 3222.156,1491.888 3220.774,1616.259C3219.92,1693.172 3150.748,1751.306 3074.764,1739.356C3049.638,1735.405 2999.386,1727.503 2999.386,1727.503Z" style="fill:rgb(215,229,233);fill-rule:nonzero;"/>
                                </g>
                                <g>
                                    <path d="M3220.79,1616.239C3219.902,1693.171 3150.765,1751.303 3074.746,1739.338C3049.64,1735.423 2999.388,1727.51 2999.388,1727.51L2972.763,1559.2L2918.32,1215.327C2918.32,1215.327 2963.703,1192.321 2986.354,1180.775C3054.975,1145.943 3138.688,1179.905 3163.263,1252.781C3191.655,1337.071 3209.544,1423.077 3216.934,1510.675C3219.9,1545.589 3221.199,1580.764 3220.79,1616.239Z" style="fill:rgb(215,229,233);fill-rule:nonzero;"/>
                                </g>
                                <g>
                                    <path d="M3220.79,1616.239C3219.902,1693.171 3150.765,1751.303 3074.746,1739.338C3049.64,1735.423 2999.388,1727.51 2999.388,1727.51L2972.763,1559.2C3041.817,1545.815 3140.795,1527.46 3153.722,1529.445C3170.087,1531.951 3200.206,1545.598 3216.934,1510.675C3219.9,1545.589 3221.199,1580.764 3220.79,1616.239Z" style="fill:rgb(176,190,195);fill-rule:nonzero;"/>
                                </g>
                            </g>
                            <g>
                                <g>
                                    <path d="M3094.458,1755.902C3087.134,1755.902 3079.775,1755.333 3072.437,1754.178L2986.27,1740.631L2901.812,1206.903L2979.581,1167.408C3016.251,1148.783 3059.122,1147.027 3097.213,1162.594C3135.157,1178.099 3164.41,1209.227 3177.477,1248.002C3217.555,1366.945 3237.169,1490.9 3235.783,1616.425C3235.329,1657.336 3217.116,1695.973 3185.817,1722.436C3160.068,1744.201 3127.671,1755.902 3094.458,1755.902ZM3012.5,1714.376L3077.1,1724.535C3109.092,1729.559 3141.675,1720.455 3166.441,1699.518C3191.08,1678.688 3205.416,1648.28 3205.772,1616.093C3207.125,1493.947 3188.038,1373.327 3149.039,1257.582C3138.761,1227.077 3115.733,1202.58 3085.865,1190.373C3055.841,1178.11 3022.066,1179.487 2993.165,1194.167L2934.869,1223.774L3012.5,1714.376Z" style="fill:rgb(81,39,23);fill-rule:nonzero;"/>
                                </g>
                            </g>
                            <g>
                                <g>
                                    <path d="M2937.121,1474.859C2899.066,1234.38 2865.638,1147.214 2893.254,1133.19C2976.769,1090.778 3078.746,1132.111 3108.654,1220.875C3157.023,1364.428 3180.377,1512.029 3178.695,1663.481C3177.655,1757.141 3093.422,1827.932 3000.894,1813.381C2970.296,1808.568 2975.176,1715.338 2937.121,1474.859Z" style="fill:rgb(178,228,56);fill-rule:nonzero;"/>
                                </g>
                                <g>
                                    <path d="M3178.696,1663.489C3177.664,1757.121 3093.417,1827.936 3000.909,1813.38C2972.903,1808.996 2974.61,1730.5 2945.873,1532.733C2943.22,1514.485 2940.338,1495.195 2937.1,1474.859C2899.06,1234.373 2865.653,1147.206 2893.253,1133.177C2976.764,1090.769 3078.748,1132.092 3108.636,1220.855C3139.469,1312.378 3160.177,1405.542 3170.633,1500.301C3176.654,1554.177 3179.342,1608.573 3178.696,1663.489Z" style="fill:rgb(178,228,56);fill-rule:nonzero;"/>
                                </g>
                                <g>
                                    <path d="M3178.696,1663.489C3177.664,1757.121 3093.417,1827.936 3000.909,1813.38C2972.903,1808.996 2974.61,1730.5 2945.873,1532.733C2944.471,1523.192 2943.034,1513.318 2941.476,1503.193C2940.11,1493.985 2938.623,1484.526 2937.1,1474.859C2927.432,1413.768 2918.079,1362.573 2909.894,1319.958C2886.041,1194.827 2872.657,1143.639 2893.252,1133.177C2976.763,1090.769 3078.747,1132.092 3108.635,1220.855C3119.267,1252.422 3128.691,1284.174 3136.865,1316.111L3136.907,1316.112C3149.113,1363.58 3158.653,1411.497 3165.484,1459.82C3167.435,1473.277 3169.139,1486.77 3170.632,1500.301C3176.654,1554.177 3179.342,1608.573 3178.696,1663.489Z" style="fill:rgb(255,190,46);fill-rule:nonzero;"/>
                                </g>
                                <g opacity="0.5">
                                    <path d="M3165.484,1459.819C3141.224,1484.215 3076.408,1528.882 2941.477,1503.192C2940.111,1493.984 2938.624,1484.525 2937.101,1474.858C2927.433,1413.767 2918.08,1362.572 2909.895,1319.957C2976.09,1283.75 3073.275,1270.223 3136.866,1316.11L3136.908,1316.111C3149.114,1363.579 3158.653,1411.496 3165.484,1459.819Z" style="fill:white;fill-rule:nonzero;"/>
                                </g>
                                <g opacity="0.5">
                                    <path d="M3117.086,1246.855C3073.384,1190.493 2993.495,1169.814 2925.797,1204.206C2919.882,1207.212 2907.409,1214.418 2891.857,1226.262C2881.061,1167.727 2878.865,1140.513 2893.253,1133.177C2976.764,1090.769 3078.748,1132.092 3108.636,1220.855C3111.55,1229.509 3114.381,1238.162 3117.086,1246.855Z" style="fill:white;fill-rule:nonzero;"/>
                                </g>
                                <g>
                                    <path d="M3178.696,1663.489C3177.664,1757.121 3093.417,1827.936 3000.909,1813.38C2972.903,1808.996 2974.61,1730.5 2945.873,1532.733C2962.011,1518.407 2974.446,1555.431 3000.906,1594.554C3042.996,1656.786 3178.433,1617.757 3170.631,1500.301C3176.654,1554.177 3179.342,1608.573 3178.696,1663.489Z" style="fill:rgb(244,143,42);fill-rule:nonzero;"/>
                                </g>
                            </g>
                            <g>
                                <g>
                                    <path d="M3024.868,1830.26C3016.123,1830.26 3007.329,1829.581 2998.564,1828.202C2967.509,1823.319 2962.695,1783.754 2949.819,1678.012C2943.823,1628.776 2935.615,1561.345 2922.299,1477.206C2908.984,1393.051 2895.971,1326.373 2886.469,1277.689C2866.069,1173.155 2858.437,1134.044 2886.459,1119.811C2930.277,1097.56 2981.498,1095.47 3026.996,1114.059C3072.323,1132.582 3107.265,1169.767 3122.87,1216.083C3171.561,1360.587 3195.39,1511.171 3193.7,1663.646C3193.158,1712.513 3171.4,1758.668 3134.017,1790.277C3103.257,1816.281 3064.551,1830.26 3024.868,1830.26ZM2951.938,1472.514C2965.336,1557.184 2973.584,1624.924 2979.609,1674.384C2987.373,1738.168 2994.082,1793.256 3003.349,1798.608C3043.149,1804.843 3083.759,1793.466 3114.643,1767.36C3145.366,1741.383 3163.247,1703.459 3163.691,1663.315C3165.346,1514.216 3142.045,1366.967 3094.433,1225.664C3081.611,1187.617 3052.895,1157.063 3015.644,1141.841C2978.222,1126.546 2936.088,1128.272 2900.043,1146.57C2892.987,1154.436 2903.617,1208.889 2915.922,1271.944C2925.469,1320.849 2938.54,1387.831 2951.938,1472.514Z" style="fill:rgb(81,39,23);fill-rule:nonzero;"/>
                                </g>
                            </g>
                            <g>
                                <path d="M2967.936,1469.983C2967.936,1469.983 2995.837,1751.886 2986.876,1823.236C2982.139,1860.954 2902.553,1880.814 2870.733,1850.194C2834.763,1815.58 2820.871,1660.934 2794.985,1497.352C2769.099,1333.77 2734.563,1182.391 2758.088,1138.362C2778.899,1099.414 2860.728,1093.73 2876.88,1128.142C2907.433,1193.239 2967.936,1469.983 2967.936,1469.983Z" style="fill:rgb(215,229,233);fill-rule:nonzero;"/>
                            </g>
                            <g>
                                <path d="M2986.89,1823.257C2982.119,1860.936 2902.557,1880.815 2870.717,1850.184C2834.756,1815.571 2820.882,1660.917 2795.001,1497.357C2774.767,1369.717 2749.327,1249.542 2750.291,1181.959C2750.562,1162.893 2752.915,1148.021 2758.081,1138.353C2778.914,1099.393 2860.747,1093.724 2876.893,1128.136C2882.649,1140.417 2889.469,1160.196 2896.752,1184.18C2928.07,1287.678 2967.938,1469.988 2967.938,1469.988C2967.938,1469.988 2995.819,1751.875 2986.89,1823.257Z" style="fill:rgb(215,229,233);fill-rule:nonzero;"/>
                            </g>
                            <g>
                                <path d="M2986.89,1823.257C2982.119,1860.936 2902.557,1880.815 2870.717,1850.184C2844.47,1824.933 2830.004,1735.833 2814.052,1625.972C2808.118,1585.227 2801.99,1541.611 2795.001,1497.357C2774.767,1369.717 2749.327,1249.542 2750.291,1181.959C2750.562,1162.893 2752.915,1148.021 2758.081,1138.353C2778.914,1099.393 2860.747,1093.724 2876.893,1128.136C2882.649,1140.417 2889.469,1160.196 2896.752,1184.18C2928.07,1287.678 2967.938,1469.988 2967.938,1469.988C2967.938,1469.988 2973.602,1527.43 2979,1597C2985.615,1681.592 2991.772,1784.083 2986.89,1823.257Z" style="fill:rgb(215,229,233);fill-rule:nonzero;"/>
                            </g>
                            <g opacity="0.5">
                                <path d="M2845.669,1207.593C2854.385,1207.755 2884.11,1332.569 2897.295,1420.105C2912.645,1522.009 2923.73,1639.767 2914.042,1642.184C2902.909,1644.962 2836.953,1207.432 2845.669,1207.593Z" style="fill:white;fill-rule:nonzero;"/>
                            </g>
                            <g>
                                <path d="M2986.89,1823.257C2982.119,1860.936 2902.557,1880.815 2870.717,1850.184C2844.47,1824.933 2830.004,1735.833 2814.052,1625.972C2828.462,1653.246 2852.735,1677.422 2893.129,1672.438C2950.139,1665.436 2971.286,1627.478 2978.999,1597C2985.615,1681.592 2991.772,1784.083 2986.89,1823.257Z" style="fill:rgb(175,194,208);fill-rule:nonzero;"/>
                            </g>
                            <g>
                                <path d="M2896.751,1184.18C2851.883,1163.778 2787.928,1173.31 2750.29,1181.959C2750.561,1162.893 2752.914,1148.021 2758.08,1138.353C2778.913,1099.393 2860.746,1093.724 2876.892,1128.136C2882.648,1140.416 2889.469,1160.196 2896.751,1184.18Z" style="fill:rgb(175,194,208);fill-rule:nonzero;"/>
                            </g>
                            <g>
                                <path d="M2914.839,1880.231C2894.697,1880.231 2874.6,1874.743 2860.332,1861.022C2829.824,1831.674 2816.45,1747.834 2795.439,1602.174C2790.654,1569.017 2785.708,1534.73 2780.2,1499.906C2774.687,1465.079 2768.804,1430.939 2763.115,1397.921C2738.125,1252.899 2724.961,1169.029 2744.922,1131.695C2760.601,1102.374 2798.985,1089.998 2830.322,1090.875C2859.17,1091.625 2881.675,1103.324 2890.527,1122.169C2921.43,1187.997 2980.141,1455.628 2982.627,1466.988L2982.9,1468.717C2984.043,1480.289 3010.839,1752.972 3001.767,1825.126C2999.169,1845.783 2981.376,1863.856 2954.169,1873.478C2942.256,1877.692 2928.54,1880.231 2914.839,1880.231ZM2827.236,1120.844C2802.48,1120.844 2779.233,1131.164 2771.386,1145.844C2755.312,1175.907 2773.466,1281.274 2792.69,1392.826C2798.393,1425.944 2804.296,1460.187 2809.838,1495.216C2815.38,1530.243 2820.341,1564.633 2825.141,1597.889C2841.303,1709.932 2856.567,1815.763 2881.132,1839.393C2893.505,1851.292 2920.019,1853.722 2944.164,1845.186C2959.955,1839.603 2970.873,1830.259 2971.991,1821.38C2980.404,1754.476 2954.818,1489.888 2953.124,1472.542C2949.379,1455.523 2892.02,1195.962 2863.358,1134.922C2859.559,1126.821 2846.283,1121.306 2829.54,1120.872C2828.774,1120.853 2828.003,1120.844 2827.236,1120.844Z" style="fill:rgb(81,39,23);fill-rule:nonzero;"/>
                            </g>
                            <g>
                                <path d="M2799.199,1174.183C2828.517,1164.472 2862.302,1153.453 2891.267,1171.832C2901.418,1178.167 2909.512,1187.277 2915.85,1196.944L2888.953,1210.251C2886.326,1202.504 2882.737,1195.333 2877.395,1189.554C2858.054,1169.049 2825.368,1172.876 2799.199,1174.183Z" style="fill:rgb(81,39,23);fill-rule:nonzero;"/>
                            </g>
                            <g>
                                <path d="M2835.889,1193.562C2878.568,1180.998 2907.242,1200.403 2927.344,1237.716C2927.344,1237.715 2899.312,1248.429 2899.312,1248.429C2896.061,1233.842 2891.195,1219.062 2880.406,1208.469C2869.112,1197.057 2851.805,1194.374 2835.889,1193.562Z" style="fill:rgb(81,39,23);fill-rule:nonzero;"/>
                            </g>
                            <g>
                                <path d="M2828.188,1347.151C2875.38,1333.432 2918.492,1319.358 2946.887,1372.822C2946.887,1372.821 2918.855,1383.535 2918.855,1383.535C2909.764,1338.5 2863.369,1347.022 2828.188,1347.151Z" style="fill:rgb(81,39,23);fill-rule:nonzero;"/>
                            </g>
                            <g>
                                <path d="M2876.211,1730.553C2902.658,1723.509 2955.928,1713.199 2953.878,1678.47C2953.877,1678.469 2983.765,1681.163 2983.765,1681.163C2974.32,1730.051 2915.834,1732.231 2876.211,1730.553Z" style="fill:rgb(81,39,23);fill-rule:nonzero;"/>
                            </g>
                            <g>
                                <g>
                                    <path d="M2982.938,1467.609C3002.92,1593.885 3027.522,1800.636 3015.36,1817.194C3006.646,1829.058 2993.449,1826.498 2986.876,1823.236C2970.206,1814.963 2975.177,1715.339 2937.121,1474.859C2899.066,1234.38 2863.578,1141.158 2876.88,1128.142C2882.125,1123.01 2893.886,1116.501 2905.838,1125.095C2922.518,1137.088 2962.955,1341.333 2982.938,1467.609Z" style="fill:rgb(126,200,39);fill-rule:nonzero;"/>
                                </g>
                                <g>
                                    <path d="M3015.339,1817.178C3006.642,1829.066 2993.436,1826.494 2986.89,1823.256C2973.263,1816.48 2974.103,1748.895 2954.136,1593.463C2949.633,1558.478 2944.092,1519.028 2937.1,1474.857C2899.06,1234.371 2863.563,1141.141 2876.892,1128.135C2882.139,1122.997 2893.894,1116.484 2905.825,1125.099C2922.513,1137.084 2962.971,1341.342 2982.939,1467.607C2988.667,1503.736 2994.73,1546.436 3000.248,1589.376C3013.963,1696.578 3024.035,1805.374 3015.339,1817.178Z" style="fill:rgb(255,190,46);fill-rule:nonzero;"/>
                                </g>
                                <g>
                                    <path d="M3015.339,1817.178C3006.642,1829.066 2993.436,1826.494 2986.89,1823.256C2973.263,1816.48 2974.103,1748.895 2954.136,1593.463C2968.471,1600.128 2985.761,1604.313 3000.248,1589.375C3013.963,1696.578 3024.035,1805.374 3015.339,1817.178Z" style="fill:rgb(244,143,42);fill-rule:nonzero;"/>
                                </g>
                            </g>
                            <g>
                                <g>
                                    <path d="M2998.389,1838.341C2992.398,1838.341 2986.499,1836.837 2981.387,1834.298C2966.68,1827.001 2964.483,1805.026 2957.217,1732.215C2951.68,1676.8 2943.321,1593.06 2924.922,1476.79C2906.524,1360.516 2888.618,1278.282 2876.773,1223.868C2861.207,1152.371 2856.509,1130.794 2868.243,1119.312C2878.931,1108.848 2896.925,1103.472 2913.053,1115.066C2918.414,1118.923 2928.4,1126.101 2955.226,1250.899C2969.074,1315.316 2984.367,1397.615 2995.138,1465.677C3005.909,1533.734 3016.769,1616.734 3023.488,1682.286C3036.506,1809.268 3029.225,1819.178 3025.319,1824.503C3018.052,1834.393 3008.096,1838.341 2998.389,1838.341ZM2993.589,1812.719C2996.416,1813.83 3001.275,1814.797 3004.912,1810.51C3011.606,1789.458 2994.849,1621.889 2970.742,1469.541C2946.631,1317.187 2910.83,1152.634 2897.964,1134.678C2893.184,1131.717 2888.858,1134.136 2886.514,1136.074C2884.834,1144.792 2892.305,1179.099 2900.909,1218.613C2912.813,1273.305 2930.811,1355.957 2949.317,1472.929C2967.828,1589.899 2976.231,1674.067 2981.793,1729.762C2985.811,1770.004 2989.302,1804.943 2993.589,1812.719ZM3004.736,1811.022C3004.731,1811.022 3004.731,1811.024 3004.731,1811.024L3004.736,1811.022ZM2897.637,1134.245C2897.637,1134.245 2897.637,1134.247 2897.637,1134.245Z" style="fill:rgb(81,39,23);fill-rule:nonzero;"/>
                                </g>
                            </g>
                        </g>
                        <g transform="matrix(0.984591,-0.174874,0.174874,0.984591,-68.148265,501.294991)">
                            <g>
                                <g>
                                    <path d="M1000.614,1727.503L1081.662,1215.338C1081.662,1215.338 1036.307,1192.304 1013.629,1180.787C945.047,1145.958 861.304,1179.901 836.743,1252.793C797.022,1370.679 777.844,1491.888 779.226,1616.259C780.08,1693.172 849.252,1751.306 925.236,1739.356C950.361,1735.405 1000.614,1727.503 1000.614,1727.503Z" style="fill:rgb(215,229,233);fill-rule:nonzero;"/>
                                </g>
                                <g>
                                    <path d="M779.211,1616.239C780.099,1693.171 849.236,1751.303 925.255,1739.338C950.361,1735.423 1000.613,1727.51 1000.613,1727.51L1027.238,1559.2L1081.681,1215.327C1081.681,1215.327 1036.298,1192.321 1013.647,1180.775C945.026,1145.943 861.313,1179.905 836.738,1252.781C808.346,1337.071 790.457,1423.077 783.067,1510.675C780.1,1545.589 778.8,1580.764 779.211,1616.239Z" style="fill:rgb(215,229,233);fill-rule:nonzero;"/>
                                </g>
                                <g>
                                    <path d="M779.211,1616.239C780.099,1693.171 849.236,1751.303 925.255,1739.338C950.361,1735.423 1000.613,1727.51 1000.613,1727.51L1027.238,1559.2C958.184,1545.815 859.206,1527.46 846.279,1529.445C829.914,1531.951 799.795,1545.598 783.067,1510.675C780.1,1545.589 778.8,1580.764 779.211,1616.239Z" style="fill:rgb(176,190,195);fill-rule:nonzero;"/>
                                </g>
                            </g>
                            <g>
                                <g>
                                    <path d="M905.547,1755.902C872.329,1755.902 839.932,1744.203 814.185,1722.435C782.886,1695.973 764.673,1657.335 764.219,1616.424C762.832,1490.899 782.446,1366.944 822.525,1248.001C835.591,1209.227 864.844,1178.099 902.789,1162.593C940.875,1147.024 983.751,1148.789 1020.421,1167.407L1098.19,1206.902L1013.732,1740.63L927.57,1754.177C920.229,1755.333 912.866,1755.902 905.547,1755.902ZM1000.615,1727.504L1000.664,1727.504L1000.615,1727.504ZM956.348,1182.074C942.041,1182.074 927.705,1184.828 914.136,1190.372C884.268,1202.579 861.24,1227.076 850.962,1257.581C811.963,1373.326 792.876,1493.946 794.229,1616.092C794.586,1648.28 808.921,1678.687 833.56,1699.517C858.321,1720.452 890.879,1729.559 922.906,1724.534L987.501,1714.375L1065.133,1223.772L1006.837,1194.165C991.001,1186.124 973.696,1182.074 956.348,1182.074Z" style="fill:rgb(81,39,23);fill-rule:nonzero;"/>
                                </g>
                            </g>
                            <g>
                                <g>
                                    <path d="M1062.879,1474.859C1100.934,1234.38 1134.362,1147.214 1106.746,1133.19C1023.231,1090.778 921.254,1132.111 891.346,1220.875C842.977,1364.428 819.623,1512.029 821.305,1663.481C822.345,1757.141 906.578,1827.932 999.106,1813.381C1029.703,1808.568 1024.824,1715.338 1062.879,1474.859Z" style="fill:rgb(178,228,56);fill-rule:nonzero;"/>
                                </g>
                                <g>
                                    <path d="M821.304,1663.489C822.336,1757.121 906.583,1827.936 999.091,1813.38C1027.097,1808.996 1025.39,1730.5 1054.127,1532.733C1056.78,1514.485 1059.662,1495.195 1062.9,1474.859C1100.94,1234.373 1134.347,1147.206 1106.747,1133.177C1023.236,1090.769 921.252,1132.092 891.364,1220.855C860.531,1312.378 839.823,1405.542 829.367,1500.301C823.346,1554.177 820.658,1608.573 821.304,1663.489Z" style="fill:rgb(178,228,56);fill-rule:nonzero;"/>
                                </g>
                                <g>
                                    <path d="M821.304,1663.489C822.336,1757.121 906.583,1827.936 999.091,1813.38C1027.097,1808.996 1025.39,1730.5 1054.127,1532.733C1055.529,1523.192 1056.966,1513.318 1058.524,1503.193C1059.89,1493.985 1061.377,1484.526 1062.901,1474.859C1072.569,1413.768 1081.922,1362.573 1090.107,1319.958C1113.96,1194.827 1127.344,1143.639 1106.748,1133.177C1023.237,1090.769 921.253,1132.092 891.365,1220.855C880.733,1252.422 871.309,1284.174 863.135,1316.111L863.093,1316.112C850.887,1363.58 841.348,1411.497 834.516,1459.82C832.565,1473.277 830.861,1486.77 829.368,1500.301C823.346,1554.177 820.658,1608.573 821.304,1663.489Z" style="fill:rgb(255,190,46);fill-rule:nonzero;"/>
                                </g>
                                <g opacity="0.5">
                                    <path d="M834.516,1459.819C858.776,1484.215 923.592,1528.882 1058.523,1503.192C1059.889,1493.984 1061.376,1484.525 1062.9,1474.858C1072.568,1413.767 1081.921,1362.572 1090.106,1319.957C1023.911,1283.75 926.726,1270.223 863.135,1316.11L863.093,1316.111C850.886,1363.579 841.347,1411.496 834.516,1459.819Z" style="fill:white;fill-rule:nonzero;"/>
                                </g>
                                <g opacity="0.5">
                                    <path d="M882.914,1246.855C926.616,1190.493 1006.505,1169.814 1074.203,1204.206C1080.118,1207.212 1092.591,1214.418 1108.143,1226.262C1118.939,1167.727 1121.135,1140.513 1106.747,1133.177C1023.236,1090.769 921.252,1132.092 891.364,1220.855C888.45,1229.509 885.62,1238.162 882.914,1246.855Z" style="fill:white;fill-rule:nonzero;"/>
                                </g>
                                <g>
                                    <path d="M821.304,1663.489C822.336,1757.121 906.583,1827.936 999.091,1813.38C1027.097,1808.996 1025.39,1730.5 1054.127,1532.733C1037.989,1518.407 1025.554,1555.431 999.094,1594.554C957.004,1656.786 821.567,1617.757 829.369,1500.301C823.346,1554.177 820.658,1608.573 821.304,1663.489Z" style="fill:rgb(244,143,42);fill-rule:nonzero;"/>
                                </g>
                            </g>
                            <g>
                                <g>
                                    <path d="M975.132,1830.26C935.444,1830.26 896.743,1816.283 865.982,1790.277C828.599,1758.668 806.841,1712.513 806.299,1663.646C804.61,1511.17 828.438,1360.587 877.129,1216.083C892.734,1169.767 927.676,1132.582 973.003,1114.059C1018.506,1095.47 1069.732,1097.565 1113.54,1119.811C1141.562,1134.044 1133.931,1173.156 1113.53,1277.689C1104.028,1326.373 1091.015,1393.05 1077.7,1477.206C1064.385,1561.344 1056.177,1628.776 1050.18,1678.012C1037.304,1783.754 1032.49,1823.32 1001.435,1828.202C992.671,1829.581 983.877,1830.26 975.132,1830.26ZM1037.051,1131.481C1019.194,1131.481 1001.294,1134.916 984.356,1141.84C947.105,1157.062 918.389,1187.616 905.567,1225.663C857.955,1366.967 834.654,1514.215 836.309,1663.314C836.753,1703.458 854.634,1741.383 885.357,1767.359C916.236,1793.465 956.841,1804.825 996.778,1798.558C1005.919,1793.255 1012.628,1738.167 1020.391,1674.383C1026.412,1624.925 1034.663,1557.176 1048.062,1472.515L1048.062,1472.513C1061.46,1387.83 1074.532,1320.848 1084.078,1271.942C1096.383,1208.888 1107.013,1154.435 1099.849,1146.481C1080.181,1136.51 1058.647,1131.481 1037.051,1131.481ZM1062.881,1474.86L1062.93,1474.86L1062.881,1474.86Z" style="fill:rgb(81,39,23);fill-rule:nonzero;"/>
                                </g>
                            </g>
                            <g>
                                <path d="M1032.064,1469.983C1032.064,1469.983 1004.163,1751.886 1013.124,1823.236C1017.861,1860.954 1097.447,1880.814 1129.267,1850.194C1165.237,1815.58 1179.129,1660.934 1205.015,1497.352C1230.901,1333.77 1265.437,1182.391 1241.912,1138.362C1221.101,1099.414 1139.271,1093.73 1123.12,1128.142C1092.567,1193.239 1032.064,1469.983 1032.064,1469.983Z" style="fill:rgb(215,229,233);fill-rule:nonzero;"/>
                            </g>
                            <g>
                                <path d="M1013.11,1823.257C1017.881,1860.936 1097.443,1880.815 1129.283,1850.184C1165.244,1815.571 1179.118,1660.917 1204.999,1497.357C1225.233,1369.717 1250.673,1249.542 1249.71,1181.959C1249.439,1162.893 1247.086,1148.021 1241.92,1138.353C1221.087,1099.393 1139.254,1093.724 1123.108,1128.136C1117.352,1140.417 1110.531,1160.196 1103.249,1184.18C1071.931,1287.678 1032.063,1469.988 1032.063,1469.988C1032.063,1469.988 1004.181,1751.875 1013.11,1823.257Z" style="fill:rgb(215,229,233);fill-rule:nonzero;"/>
                            </g>
                            <g>
                                <path d="M1013.11,1823.257C1017.881,1860.936 1097.443,1880.815 1129.283,1850.184C1155.53,1824.933 1169.996,1735.833 1185.948,1625.972C1191.881,1585.227 1198.01,1541.611 1204.999,1497.357C1225.233,1369.717 1250.673,1249.542 1249.71,1181.959C1249.439,1162.893 1247.086,1148.021 1241.92,1138.353C1221.087,1099.393 1139.254,1093.724 1123.108,1128.136C1117.352,1140.417 1110.531,1160.196 1103.249,1184.18C1071.931,1287.678 1032.063,1469.988 1032.063,1469.988C1032.063,1469.988 1026.398,1527.43 1021,1597C1014.385,1681.592 1008.228,1784.083 1013.11,1823.257Z" style="fill:rgb(215,229,233);fill-rule:nonzero;"/>
                            </g>
                            <g opacity="0.5">
                                <path d="M1154.331,1207.593C1145.616,1207.755 1115.89,1332.569 1102.705,1420.105C1087.356,1522.009 1076.27,1639.767 1085.958,1642.184C1097.091,1644.962 1163.047,1207.432 1154.331,1207.593Z" style="fill:white;fill-rule:nonzero;"/>
                            </g>
                            <g>
                                <path d="M1013.11,1823.257C1017.881,1860.936 1097.443,1880.815 1129.283,1850.184C1155.53,1824.933 1169.996,1735.833 1185.948,1625.972C1171.538,1653.246 1147.265,1677.422 1106.87,1672.438C1049.86,1665.436 1028.713,1627.478 1021,1597C1014.385,1681.592 1008.228,1784.083 1013.11,1823.257Z" style="fill:rgb(175,194,208);fill-rule:nonzero;"/>
                            </g>
                            <g>
                                <path d="M1103.249,1184.18C1148.117,1163.778 1212.072,1173.31 1249.71,1181.959C1249.439,1162.893 1247.086,1148.021 1241.92,1138.353C1221.087,1099.393 1139.254,1093.724 1123.108,1128.136C1117.352,1140.416 1110.531,1160.196 1103.249,1184.18Z" style="fill:rgb(175,194,208);fill-rule:nonzero;"/>
                            </g>
                            <g>
                                <path d="M1085.156,1880.231C1071.46,1880.231 1057.744,1877.692 1045.83,1873.478C1018.623,1863.856 1000.83,1845.783 998.232,1825.126C989.16,1752.973 1015.957,1480.29 1017.099,1468.717L1017.372,1466.988C1019.857,1455.628 1078.568,1187.996 1109.472,1122.169C1118.325,1103.324 1140.829,1091.625 1169.677,1090.875C1200.942,1089.945 1239.399,1102.372 1255.077,1131.698C1275.038,1169.03 1261.874,1252.899 1236.884,1397.921C1231.196,1430.939 1225.312,1465.079 1219.799,1499.908C1214.291,1534.73 1209.345,1569.017 1204.56,1602.174C1183.549,1747.833 1170.175,1831.674 1139.667,1861.019C1125.4,1874.74 1105.298,1880.231 1085.156,1880.231ZM1046.875,1472.543C1045.181,1489.889 1019.595,1754.477 1028.008,1821.381C1029.126,1830.26 1040.044,1839.604 1055.835,1845.187C1079.981,1853.727 1106.499,1851.293 1118.867,1839.391C1143.432,1815.763 1158.696,1709.933 1174.858,1597.89C1179.658,1564.633 1184.619,1530.244 1190.161,1495.217C1195.703,1460.188 1201.606,1425.945 1207.309,1392.827C1226.533,1281.274 1244.687,1175.908 1228.613,1145.847C1220.522,1130.713 1195.947,1120.21 1170.459,1120.874C1153.716,1121.309 1140.439,1126.824 1136.641,1134.924C1107.979,1195.963 1050.62,1455.524 1046.875,1472.543Z" style="fill:rgb(81,39,23);fill-rule:nonzero;"/>
                            </g>
                            <g>
                                <path d="M1200.801,1174.183C1174.649,1172.873 1141.932,1169.051 1122.605,1189.554C1117.263,1195.333 1113.674,1202.505 1111.048,1210.251L1084.151,1196.944C1090.489,1187.277 1098.582,1178.167 1108.734,1171.832C1137.704,1153.453 1171.475,1164.473 1200.801,1174.183Z" style="fill:rgb(81,39,23);fill-rule:nonzero;"/>
                            </g>
                            <g>
                                <path d="M1164.111,1193.562C1148.201,1194.371 1130.883,1197.058 1119.595,1208.47C1108.805,1219.064 1103.941,1233.84 1100.689,1248.429L1072.657,1237.715C1092.773,1200.374 1121.458,1181.006 1164.111,1193.562Z" style="fill:rgb(81,39,23);fill-rule:nonzero;"/>
                            </g>
                            <g>
                                <path d="M1171.812,1347.151C1136.628,1347.016 1090.227,1338.513 1081.146,1383.536C1081.145,1383.535 1053.113,1372.821 1053.113,1372.821C1081.538,1319.326 1124.644,1333.452 1171.812,1347.151Z" style="fill:rgb(81,39,23);fill-rule:nonzero;"/>
                            </g>
                            <g>
                                <path d="M1123.789,1730.553C1084.196,1732.244 1025.653,1730.038 1016.235,1681.162C1016.235,1681.163 1046.123,1678.469 1046.123,1678.469C1043.899,1713.001 1097.445,1723.611 1123.789,1730.553Z" style="fill:rgb(81,39,23);fill-rule:nonzero;"/>
                            </g>
                            <g>
                                <g>
                                    <path d="M1017.063,1467.609C997.08,1593.885 972.479,1800.636 984.641,1817.194C993.355,1829.058 1006.552,1826.498 1013.125,1823.236C1029.795,1814.963 1024.825,1715.339 1062.88,1474.859C1100.935,1234.38 1136.423,1141.158 1123.121,1128.142C1117.876,1123.01 1106.115,1116.501 1094.163,1125.095C1077.482,1137.088 1037.045,1341.333 1017.063,1467.609Z" style="fill:rgb(126,200,39);fill-rule:nonzero;"/>
                                </g>
                                <g>
                                    <path d="M984.661,1817.178C993.358,1829.066 1006.564,1826.494 1013.111,1823.256C1026.738,1816.48 1025.898,1748.895 1045.865,1593.463C1050.368,1558.478 1055.909,1519.028 1062.901,1474.857C1100.941,1234.371 1136.438,1141.141 1123.109,1128.135C1117.861,1122.997 1106.107,1116.484 1094.176,1125.099C1077.488,1137.084 1037.03,1341.342 1017.062,1467.607C1011.334,1503.736 1005.271,1546.436 999.753,1589.376C986.037,1696.578 975.965,1805.374 984.661,1817.178Z" style="fill:rgb(255,190,46);fill-rule:nonzero;"/>
                                </g>
                                <g>
                                    <path d="M984.661,1817.178C993.358,1829.066 1006.564,1826.494 1013.111,1823.256C1026.738,1816.48 1025.898,1748.895 1045.865,1593.463C1031.53,1600.128 1014.24,1604.313 999.753,1589.375C986.037,1696.578 975.965,1805.374 984.661,1817.178Z" style="fill:rgb(244,143,42);fill-rule:nonzero;"/>
                                </g>
                            </g>
                            <g>
                                <g>
                                    <path d="M1001.611,1838.341C991.904,1838.341 981.953,1834.396 974.687,1824.506C970.776,1819.179 963.496,1809.269 976.513,1682.287C983.232,1616.735 994.091,1533.735 1004.863,1465.678C1015.635,1397.616 1030.927,1315.317 1044.775,1250.9C1071.601,1126.103 1081.587,1118.925 1086.948,1115.067C1103.071,1103.473 1121.064,1108.849 1131.758,1119.313C1143.491,1130.795 1138.794,1152.372 1123.228,1223.869C1111.382,1278.283 1093.477,1360.517 1075.079,1476.791C1056.681,1593.061 1048.321,1676.801 1042.784,1732.216C1035.518,1805.026 1033.321,1827.001 1018.619,1834.299C1013.501,1836.837 1007.602,1838.341 1001.611,1838.341ZM995.088,1810.512C998.716,1814.797 1003.574,1813.832 1006.411,1812.719C1010.698,1804.943 1014.189,1770.004 1018.208,1729.762C1023.769,1674.066 1032.173,1589.899 1050.684,1472.929C1069.19,1355.956 1087.188,1273.305 1099.092,1218.613C1107.696,1179.099 1115.166,1144.792 1113.487,1136.074C1111.133,1134.136 1106.807,1131.723 1102.037,1134.678C1089.171,1152.632 1053.37,1317.195 1029.259,1469.541C1005.151,1621.889 988.394,1789.457 995.088,1810.512ZM995.264,1811.022L995.269,1811.024C995.269,1811.024 995.269,1811.022 995.264,1811.022Z" style="fill:rgb(81,39,23);fill-rule:nonzero;"/>
                                </g>
                            </g>
                        </g>
                        <g>
                            <g>
                                <path d="M2010.956,1761.573L2010.958,1762.027C2010.958,1761.936 2010.912,1761.891 2010.912,1761.8C2010.911,1761.709 2010.957,1761.664 2010.956,1761.573Z" style="fill:rgb(81,39,23);fill-rule:nonzero;"/>
                            </g>
                        </g>
                        <g transform="matrix(1,0,0,1,-149,213)">
                            <g>
                                <g>
                                    <g>
                                        <path d="M2608.335,2193.068C2602.513,2188.967 2599.28,2181.681 2600.614,2174.012C2602.476,2163.296 2612.541,2155.89 2623.101,2157.468C2749.366,2176.346 2850.834,2125.965 2924.691,2007.729C2981.416,1916.919 2999.967,1818.402 3000.149,1817.419C3002.11,1806.726 3012.237,1799.41 3022.774,1801.085C3033.29,1802.757 3040.27,1812.773 3038.318,1823.47C3037.539,1827.761 3018.478,1929.65 2957.964,2027.003C2875.988,2158.891 2757.861,2217.421 2616.358,2196.268C2613.359,2195.817 2610.644,2194.694 2608.335,2193.068Z" style="fill:rgb(215,229,233);fill-rule:nonzero;"/>
                                    </g>
                                </g>
                                <g>
                                    <g>
                                        <path d="M2682.837,2202.218C2662.852,2202.218 2642.3,2200.521 2621.206,2197.111C2616.797,2196.396 2612.729,2194.738 2609.106,2192.187L2609.101,2192.185C2599.931,2185.72 2595.341,2174.824 2597.128,2163.747C2599.691,2147.907 2614.638,2137.089 2630.497,2139.665C2751.474,2159.245 2847.894,2112.793 2917.069,2001.635C2970.629,1915.566 2987.611,1820.629 2987.777,1819.682C2990.492,1803.891 3005.56,1793.215 3021.356,1795.934C3037.162,1798.637 3047.826,1813.69 3045.135,1829.491C3044.407,1833.754 3026.693,1935.111 2967.069,2031.412C2897.368,2143.993 2799.932,2202.218 2682.837,2202.218ZM2620.488,2176.031C2621.64,2176.844 2622.949,2177.374 2624.37,2177.604C2760.493,2199.618 2873.208,2145.477 2950.273,2021.012C3007.885,1927.955 3024.956,1830.289 3025.654,1826.176C3026.518,1821.105 3023.095,1816.279 3018.027,1815.412C3012.959,1814.55 3008.125,1817.973 3007.251,1823.044C3007.08,1824.038 2989.575,1922.524 2933.848,2012.075C2860.054,2130.64 2756.944,2180.134 2627.344,2159.172C2622.241,2158.352 2617.456,2161.816 2616.641,2166.899C2616.064,2170.453 2617.539,2173.954 2620.488,2176.031Z" style="fill:rgb(81,39,23);fill-rule:nonzero;"/>
                                    </g>
                                </g>
                            </g>
                            <g>
                                <g>
                                    <path d="M2595.876,2226.999L2500.934,2209.386C2474.017,2204.393 2456.244,2178.523 2461.237,2151.606L2464.825,2132.264C2469.819,2105.347 2495.688,2087.574 2522.605,2092.567L2617.548,2110.18C2644.465,2115.174 2662.238,2141.043 2657.245,2167.96L2653.657,2187.302C2648.662,2214.22 2622.793,2231.993 2595.876,2226.999Z" style="fill:rgb(104,104,104);fill-rule:nonzero;"/>
                                </g>
                                <g opacity="0.5">
                                    <path d="M2656.699,2170.836L2654.171,2184.463C2653.813,2186.39 2653.318,2188.291 2652.768,2190.111C2654.734,2163.779 2636.577,2139.623 2610.01,2134.695L2520.816,2118.148C2494.251,2113.22 2468.637,2129.255 2461.028,2154.541C2461.166,2152.644 2461.386,2150.692 2461.743,2148.765L2464.271,2135.138C2469.557,2106.645 2496.972,2087.811 2525.464,2093.096L2614.658,2109.643C2643.151,2114.929 2661.984,2142.343 2656.699,2170.836Z" style="fill:white;fill-rule:nonzero;"/>
                                </g>
                                <g>
                                    <path d="M2656.699,2170.836L2654.171,2184.463C2648.885,2212.956 2621.485,2231.721 2592.991,2226.435L2503.797,2209.889C2475.305,2204.603 2456.457,2177.258 2461.743,2148.765L2464.271,2135.138C2465.254,2129.838 2467.025,2124.899 2469.364,2120.349C2471.995,2142.622 2488.762,2161.608 2511.955,2165.911L2601.149,2182.457C2624.343,2186.76 2646.804,2175.051 2657.249,2155.204C2657.802,2160.29 2657.682,2165.536 2656.699,2170.836Z" style="fill:rgb(84,83,84);fill-rule:nonzero;"/>
                                </g>
                                <g>
                                    <path d="M2604.946,2240.187C2601.206,2240.187 2597.422,2239.847 2593.623,2239.142L2498.682,2221.53C2465.113,2215.304 2442.867,2182.926 2449.092,2149.355L2452.681,2130.011C2458.907,2096.439 2491.309,2074.186 2524.854,2080.424L2619.8,2098.036C2653.369,2104.267 2675.615,2136.644 2669.39,2170.211L2665.801,2189.557C2660.278,2219.325 2634.189,2240.187 2604.946,2240.187ZM2513.545,2104.083C2495.967,2104.083 2480.288,2116.622 2476.968,2134.518L2473.379,2153.859C2469.639,2174.037 2483.008,2193.5 2503.184,2197.243L2598.125,2214.855C2618.35,2218.612 2637.769,2205.229 2641.514,2185.05L2645.103,2165.706C2648.843,2145.53 2635.474,2126.067 2615.293,2122.322L2520.352,2104.71C2518.066,2104.286 2515.791,2104.083 2513.545,2104.083Z" style="fill:rgb(81,39,23);fill-rule:nonzero;"/>
                                </g>
                            </g>
                        </g>
                    </g>
                </g>
            </g>
        </g>
        <g id="hair" transform="matrix(0.937009,0,0,0.937009,3.348862,12.64073)">
            <g id="_-Path-17" serif:id="&lt;Path&gt;" transform="matrix(0.628202,0,0,0.628202,18.637663,25.485649)">
                <path d="M25.66,51.79C25.66,51.79 31.09,35.5 50.28,36.3C62.09,36.8 68.95,41.69 74.1,48.92C77.29,53.4 81.43,61 81.58,66.02C81.7,69.82 81.58,72.05 81.58,72.05C81.58,72.05 80.24,69.43 78.62,67.61C77,65.78 75.57,65.02 75.57,65.02C75.57,65.02 76,68.44 74.69,73.57C73.4,78.66 71.75,82.28 71.75,82.28C71.75,82.28 68.92,74.28 64.26,69.22C59.6,64.15 49.78,58.68 49.78,58.68C49.78,58.68 49.48,61.49 56.46,67.19C61.09,70.97 63.23,71.86 63.23,71.86C63.23,71.86 59.58,71.41 55.03,70.49C50.47,69.58 47.39,67.8 47.39,67.8C47.39,67.8 47.97,68.59 48.76,69.42C49.47,70.16 50.13,70.72 50.13,70.72C50.13,70.72 44.81,70.18 39.94,68.25C35.08,66.33 30.01,62.43 30.01,62.43C30.01,62.43 27.89,67.8 27.18,73.17C26.47,78.54 26.76,83.8 26.76,83.8C26.76,83.8 25.26,82.21 24.56,80.49C23.96,79.02 23.45,77.26 23.45,77.26C23.45,77.26 23.05,78.39 22.92,79.19C22.79,80.02 22.96,81.17 22.96,81.17C22.96,81.17 19.07,76.51 18.67,68.1C18.26,59.69 20.69,56.35 21.3,55.64C21.91,54.93 25.66,51.79 25.66,51.79Z" style="fill:rgb(55,42,39);fill-rule:nonzero;"/>
            </g>
            <g id="_-Path-18" serif:id="&lt;Path&gt;" transform="matrix(0.628202,0,0,0.628202,18.637663,25.485649)">
                <path d="M25.2,53.66C24.833,53.453 24.533,53.213 24.3,52.94C23.16,53.92 21.67,55.21 21.3,55.64C21.24,55.713 21.16,55.817 21.06,55.95C22.39,56.59 23.86,57.05 25.2,57.16C28.01,57.39 31.51,55.72 31.51,55.72C31.51,55.72 28.62,55.56 25.2,53.66Z" style="fill:rgb(113,101,88);fill-rule:nonzero;"/>
            </g>
            <g id="_-Path-19" serif:id="&lt;Path&gt;" transform="matrix(0.628202,0,0,0.628202,18.637663,25.485649)">
                <path d="M74.1,48.92C71.75,45.61 69.03,42.81 65.65,40.68C65.63,42.38 65.39,43.99 64.94,44.85C64.03,46.6 62.89,47.66 57.72,50.32C52.56,52.98 38.58,54.96 38.58,54.96C38.58,54.96 48.76,55.72 54.38,55.72C60,55.72 69.5,54.73 72.08,52.75C73.18,51.91 73.92,50.6 74.41,49.37C74.303,49.217 74.2,49.067 74.1,48.92Z" style="fill:rgb(113,101,88);fill-rule:nonzero;"/>
            </g>
        </g>
        <g id="glasses" transform="matrix(0.937009,0,0,0.937009,3.563906,13.020517)">
            <g transform="matrix(0.182427,0,0,0.182427,56.755492,82.394592)">
                <path d="M0,-49.196C7.305,-49.537 22.317,-50.476 28.975,-44.716C35.633,-38.955 31.413,-14.083 23.068,-6.402C14.722,1.28 -4.595,1.188 -15.003,-4.115C-25.412,-9.419 -29.725,-29.993 -27.287,-37.491C-24.849,-44.99 -21.567,-48.19 0,-49.196" style="fill:rgb(70,65,90);fill-rule:nonzero;"/>
            </g>
            <g transform="matrix(0.182427,0,0,0.182427,41.305373,82.394592)">
                <path d="M0,-49.196C-7.305,-49.537 -22.317,-50.476 -28.975,-44.716C-35.633,-38.955 -31.414,-14.083 -23.068,-6.402C-14.722,1.28 4.595,1.188 15.003,-4.115C25.412,-9.419 29.725,-29.993 27.287,-37.491C24.849,-44.99 21.567,-48.19 0,-49.196" style="fill:rgb(70,65,90);fill-rule:nonzero;"/>
            </g>
            <g transform="matrix(0.182427,0,0,0.182427,60.963689,74.412009)">
                <path d="M0,37.356C-8.346,45.037 -27.663,44.945 -38.071,39.642C-48.479,34.338 -52.793,13.764 -50.355,6.266C-47.917,-1.232 -44.635,-4.433 -23.068,-5.438C-15.763,-5.779 -0.75,-6.719 5.907,-0.958C12.565,4.803 8.345,29.675 0,37.356M-92.757,39.642C-103.165,44.945 -122.482,45.037 -130.828,37.356C-139.173,29.675 -143.393,4.803 -136.735,-0.958C-130.077,-6.719 -115.065,-5.779 -107.76,-5.438C-86.193,-4.433 -82.911,-1.232 -80.473,6.266C-78.035,13.764 -82.348,34.338 -92.757,39.642M18.036,-8.8C9.172,-11.016 -15.06,-13.311 -23.944,-12.886C-43.637,-11.944 -50.793,-9.459 -54.393,-4.321C-55.9,-3.655 -59.627,-2.347 -65.674,-2.347C-72.367,-2.347 -76.282,-3.988 -77.392,-4.529C-81.186,-9.118 -88.594,-11.391 -107.217,-12.282C-116.101,-12.707 -140.333,-10.413 -149.197,-8.197C-151.945,-7.51 -151.573,0.313 -149.836,1.097C-146.793,2.472 -146.547,9.739 -145.664,16.34C-144.422,25.617 -139.44,37.153 -135.271,41.088C-125.121,50.667 -101.629,50.553 -88.971,43.939C-78.907,38.68 -73.534,21.389 -73.243,9.82C-71.74,8.513 -69.335,7.222 -65.674,7.222C-61.785,7.222 -59.356,8.561 -57.9,9.893C-57.421,21.448 -52.059,38.179 -42.19,43.335C-29.532,49.949 -6.04,50.064 4.109,40.484C8.278,36.549 13.261,25.013 14.502,15.736C15.385,9.136 15.632,1.868 18.674,0.494C20.412,-0.291 20.784,-8.113 18.036,-8.8" style="fill:rgb(0,200,170);fill-rule:nonzero;"/>
            </g>
            <g transform="matrix(0.182427,0,0,0.182427,38.859606,76.192865)">
                <path d="M0,17.55C0,4.462 8.24,-6.697 19.813,-11.035C17.918,-11.21 15.802,-11.352 13.428,-11.463C7.081,-11.759 -5.964,-12.575 -11.749,-7.569C-17.534,-2.564 -13.868,19.048 -6.616,25.722C-4.295,27.859 -0.995,29.3 2.713,30.125C0.976,26.289 0,22.035 0,17.55" style="fill:white;fill-rule:nonzero;"/>
            </g>
            <g transform="matrix(0.182427,0,0,0.182427,55.231129,76.269977)">
                <path d="M0,17.452C0,3.6 9.133,-8.117 21.706,-12.009C17.441,-12.226 13.28,-11.993 10.443,-11.86C-8.491,-10.977 -11.372,-8.168 -13.512,-1.585C-15.652,4.998 -11.866,23.06 -2.728,27.716C-1.176,28.507 0.606,29.162 2.524,29.678C0.903,25.929 0,21.797 0,17.452" style="fill:white;fill-rule:nonzero;"/>
            </g>
        </g>
        <g id="christmasHat" transform="matrix(-0.286727,-0.004509,-0.004509,0.286727,105.070164,44.022894)">
            <g transform="matrix(1,0,0,1,127.7241,7.52903)">
                <path d="M0,94.825C1.527,86.889 6.237,79.895 8.529,72.633C10.82,65.369 7.256,59.181 6.365,53.533C5.474,47.884 4.074,42.907 4.074,42.907C4.074,42.907 -10.693,51.111 -16.549,59.451C-22.404,67.79 -26.859,77.743 -27.369,76.398C-27.878,75.054 -32.588,66.31 -32.461,64.562C-32.333,62.813 -29.405,56.491 -17.439,33.357C-5.474,10.222 11.075,2.69 22.532,1.346C33.988,0 49.01,4.843 62.248,15.065C75.487,25.287 100.946,39.275 107.057,44.925C113.167,50.573 114.44,68.328 114.44,68.328L0,94.825Z" style="fill:rgb(229,0,19);"/>
            </g>
            <g transform="matrix(1,0,0,1,144.9092,108.23013)">
                <path d="M0,-24.841C-9.929,-20.269 -16.294,-21.075 -21.641,-12.737C-26.987,-4.397 -23.804,9.725 -20.75,17.259C-17.694,24.791 -1.272,15.913 18.077,8.112C37.425,0.31 48.754,-6.818 78.542,-4.398C108.33,-1.976 111.094,-7.084 112.367,-15.02C113.64,-22.955 109.094,-40.444 102.856,-43.403C89.726,-49.632 10.881,-29.853 0,-24.841" style="fill:white;"/>
            </g>
            <g transform="matrix(1,0,0,1,93.5439,65.75053)">
                <path d="M0,36.081C9.687,36.081 17.588,27.977 17.588,18.04C17.588,8.103 9.687,0 0,0C-9.687,0 -17.588,8.103 -17.588,18.04C-17.588,27.977 -9.687,36.081 0,36.081" style="fill:white;"/>
            </g>
            <g transform="matrix(1,0,0,1,92.9121,83.75303)">
                <path d="M0,13.307C-8.09,13.307 -14.904,7.704 -16.956,0.076C-16.937,10.022 -9.07,18.078 0.632,18.078C10.345,18.078 18.22,10.001 18.22,0.038C18.22,-1.628 18,-3.24 17.588,-4.771L17.588,-4.733C17.588,5.23 9.713,13.307 0,13.307" style="fill:rgb(238,238,239);"/>
            </g>
            <g transform="matrix(1,0,0,1,120.4087,114.13273)">
                <path d="M0,-8.02C-0.223,-1.028 1.791,6.521 3.751,11.356C6.806,18.888 23.228,10.01 42.577,2.209C61.926,-5.592 73.255,-12.72 103.042,-10.3C132.83,-7.878 135.594,-12.987 136.867,-20.922C137.132,-22.576 137.145,-24.643 136.942,-26.908C134.931,-22.273 131.25,-16.168 125.065,-13.733C114.309,-9.496 87.066,-17.027 73.955,-18.373C60.843,-19.718 47.095,-8.285 32.837,-0.081C18.581,8.125 11.452,11.623 6.233,6.78C1.014,1.938 0,-8.02 0,-8.02" style="fill:rgb(238,238,239);"/>
            </g>
            <g transform="matrix(1,0,0,1,105.0488,40.74993)">
                <path d="M0,29.396C0.88,30.176 1.683,31.045 2.397,31.989C3.548,30.086 4.802,28.117 6.126,26.23C11.982,17.89 26.749,9.686 26.749,9.686C26.749,9.686 28.149,14.663 29.04,20.312C29.931,25.96 33.496,32.148 31.204,39.412C30.406,41.94 29.315,44.436 28.167,46.951C31.476,45.708 35.291,44.744 39.86,42.639C47.585,39.081 89.567,28.08 117.969,24.226C117.969,24.226 77.73,26.83 63.091,31.671C48.452,36.513 36.486,40.28 35.595,38.262C34.704,36.245 39.159,29.923 35.595,24.409C32.031,18.894 32.031,14.859 33.94,12.573C35.85,10.286 52.144,16.069 54.945,17.549C57.745,19.029 45.652,10.152 37.123,9.748C28.594,9.344 29.104,11.161 28.85,9.815C28.595,8.47 29.295,2.888 33.813,-3.904C37.85,-9.97 45.593,-16.199 47.519,-17.555C44.825,-15.949 30.393,-7.485 27.831,-0.206C24.967,7.932 25.985,6.924 18.538,11.7C11.091,16.474 8.354,17.08 1.226,27.571C0.808,28.185 0.4,28.793 0,29.396" style="fill:rgb(206,19,28);"/>
            </g>
        </g>
        <g id="easterRabbit" transform="matrix(1.085069,0.100886,-0.100886,1.085069,16.754347,38.726139)">
            <g transform="matrix(0.259562,0,0,0.259562,24.088993,0.560507)">
                <path d="M0,95.09C0,95.09 -32.045,90.113 -43.669,58.879C-55.292,27.644 -51.334,0 -51.334,0C-51.334,0 -16.629,15.58 -0.174,44.227C14.928,70.517 10.594,80.769 10.594,80.769C9.447,85.946 4.165,92.989 0,95.09" style="fill:white;fill-rule:nonzero;"/>
            </g>
            <g transform="matrix(0.259562,0,0,0.259562,44.396571,12.35569)">
                <path d="M0,-0.754C-3.639,11.754 -10.584,25.45 -14.11,32.003C-15.437,34.467 -16.277,35.921 -16.277,35.921C-29.479,35.279 -39.954,33.003 -44.543,27.199C-44.364,8.803 -45.906,-8.518 -43.088,-19.828C-41.647,-25.619 -39.063,-29.834 -34.522,-31.809C-33.901,-32.082 -33.244,-32.31 -32.547,-32.496C-16.814,-36.675 -7.19,-32.696 0.081,-22.984C3.547,-18.355 2.652,-9.87 0,-0.754" style="fill:white;fill-rule:nonzero;"/>
            </g>
            <g transform="matrix(0.259562,0,0,0.259562,44.396571,12.374638)">
                <path d="M0,-0.827C-3.639,11.681 -10.584,25.377 -14.11,31.93C-26.523,18.132 -37.369,-5.83 -43.088,-19.901C-41.647,-25.692 -39.063,-29.907 -34.522,-31.882L-20.059,-32.757L0,-0.827Z" style="fill:rgb(211,211,211);fill-rule:nonzero;"/>
            </g>
            <g transform="matrix(0.259562,0,0,0.259562,42.140118,12.930906)">
                <path d="M0,-1.64C-2.472,7.544 -7.935,20.399 -9.335,23.637C-9.55,24.131 -9.67,24.402 -9.67,24.402C-9.67,24.402 -16.221,27.608 -26.424,21.765C-26.424,21.765 -27.412,5.168 -25.749,-8.579C-25.162,-13.43 -24.245,-17.926 -22.837,-21.212C-21.633,-24.023 -20.07,-25.95 -18.051,-26.458C-6.974,-29.248 -0.427,-16.509 1.096,-9.977C1.484,-8.313 0.975,-5.263 0,-1.64" style="fill:rgb(253,78,80);fill-rule:nonzero;"/>
            </g>
            <g transform="matrix(0.259562,0,0,0.259562,42.140118,13.309088)">
                <path d="M0,-3.097C-2.472,6.087 -7.935,18.942 -9.335,22.18C-14.931,11.162 -21.504,-1.761 -25.749,-10.036C-25.162,-14.887 -24.245,-19.383 -22.837,-22.669L-18.251,-25.277L0,-3.097Z" style="fill:rgb(160,38,48);fill-rule:nonzero;"/>
            </g>
            <g transform="matrix(0.259562,0,0,0.259562,46.243174,0.876057)">
                <path d="M0,82.718C-18.357,71.102 -38.098,38.28 -45.511,25.137L-45.541,25.085C-47.475,21.665 -48.555,19.596 -48.555,19.596C-47.504,11.312 -20.778,0 -7.027,21.24C-5.4,23.756 -3.978,26.259 -2.749,28.739C-2.749,28.739 -2.749,28.75 -2.739,28.771C11.695,57.835 0,82.718 0,82.718" style="fill:white;fill-rule:nonzero;"/>
            </g>
            <g transform="matrix(0.259562,0,0,0.259562,46.243174,7.387176)">
                <path d="M0,57.633C-18.357,46.017 -38.098,13.195 -45.511,0.052L-45.541,0C-45.541,0 -23.324,25.117 -9.625,25.915C3.777,26.7 -2.464,4.63 -2.739,3.686C11.695,32.75 0,57.633 0,57.633" style="fill:rgb(211,211,211);fill-rule:nonzero;"/>
            </g>
            <g transform="matrix(0.259562,0,0,0.259562,25.147773,7.558798)">
                <path d="M0,50.006C0,50.006 1.167,54.223 -7.899,59.11C-7.899,59.11 -20.186,54.996 -29.695,44.382C-31.794,42.044 -33.754,39.391 -35.42,36.397C-44.647,19.812 -47.401,-9.104 -47.401,-9.104C-47.401,-9.104 -23.396,2.401 -9.428,24.242C-4.685,31.652 -1.098,40.257 0,50.006" style="fill:rgb(160,38,48);fill-rule:nonzero;"/>
            </g>
            <g transform="matrix(0.259562,0,0,0.259562,25.147773,10.228136)">
                <path d="M0,39.722C0,39.722 1.167,43.939 -7.899,48.826C-7.899,48.826 -20.186,44.712 -29.695,34.098C-29.806,33.91 -29.915,33.718 -30.022,33.525C-39.247,16.939 -40.041,-9.104 -40.041,-9.104C-40.041,-9.104 -23.411,-3.066 -9.428,13.958C-4.685,21.368 -1.098,29.973 0,39.722" style="fill:rgb(253,78,80);fill-rule:nonzero;"/>
            </g>
        </g>
        <g id="halloweenHat" transform="matrix(0.33076,0.058022,-0.058022,0.33076,40.775281,30.208191)">
            <g transform="matrix(1,0,0,1,20.939309,121.230486)">
                <path d="M0,-3.493C0,-3.493 16.124,-1.477 27.949,-1.208C39.774,-0.94 51.035,-0.28 53.723,-0.145C56.41,-0.011 89.762,8.466 103.199,9.541L54.556,-13.034L0,-3.493Z" style="fill:rgb(17,16,19);fill-rule:nonzero;"/>
            </g>
            <g transform="matrix(1,0,0,1,12.453009,48.937586)">
                <path d="M0,40.11C0,40.11 -49.336,54.448 -49.336,55.956C-49.336,57.463 -21.633,69.525 17.377,68.771C42.438,68.286 61.099,67.451 63.737,68.771C66.376,70.09 123.666,85.92 124.42,84.035C125.174,82.151 82.96,48.983 82.96,48.983C82.96,48.983 85.599,37.11 88.236,34.66C90.875,32.21 101.617,26.368 102.56,22.034C103.502,17.699 77.683,0.173 78.248,-2.843C78.813,-5.858 83.902,-12.642 84.656,-17.165C85.41,-21.688 84.656,-27.53 83.714,-28.661C82.771,-29.792 66.188,-39.78 56.765,-41.476C47.342,-43.172 30.946,-45.81 29.438,-44.868C27.931,-43.926 14.739,-33.938 10.404,-31.111C6.07,-28.284 -18.806,-8.684 -18.43,-7.366C-18.053,-6.046 3.055,-11.135 11.724,-14.527C20.393,-17.919 33.396,-24.892 33.396,-24.892C33.396,-24.892 31.323,-14.527 32.077,-10.192C32.831,-5.858 34.903,3.942 33.962,5.072C33.02,6.203 7.766,25.237 6.259,26.557C4.751,27.876 0,40.11 0,40.11" style="fill:rgb(65,48,145);fill-rule:nonzero;"/>
            </g>
            <g transform="matrix(1,0,0,1,136.871009,5.013986)">
                <path d="M0,127.956C-0.748,129.839 -58.044,114.015 -60.685,112.69C-63.315,111.374 -81.979,112.207 -107.04,112.69C-146.051,113.447 -173.753,101.39 -173.753,99.876C-173.753,98.371 -124.416,84.033 -124.416,84.033C-124.416,84.033 -119.665,71.796 -118.16,70.48C-116.655,69.164 -91.396,50.123 -90.459,48.997C-89.513,47.861 -91.585,38.065 -92.342,33.731C-93.09,29.453 -91.083,19.308 -91.036,19.042C-91.434,19.251 -104.153,26.065 -112.69,29.396C-121.359,32.785 -142.474,37.876 -142.843,36.56C-143.222,35.236 -118.35,15.635 -114.015,12.815C-109.681,9.985 -96.487,0 -94.982,-0.946C-93.469,-1.883 -77.076,0.748 -67.65,2.452C-58.233,4.146 -41.643,14.13 -40.706,15.266C-39.76,16.393 -39.012,22.232 -39.76,26.756C-40.517,31.28 -45.608,38.065 -46.167,41.084C-46.734,44.094 -20.916,61.622 -21.862,65.956C-22.8,70.291 -33.541,76.13 -36.182,78.581C-38.822,81.033 -41.453,92.91 -41.453,92.91C-41.453,92.91 0.757,126.073 0,127.956" style="fill:rgb(104,82,163);fill-rule:nonzero;"/>
            </g>
            <g transform="matrix(1,0,0,1,24.180609,102.614386)">
                <path d="M0,-68.204C8.537,-71.536 21.257,-78.35 21.654,-78.558C21.607,-78.293 19.601,-68.147 20.349,-63.87C21.105,-59.535 23.178,-49.74 22.231,-48.604C21.295,-47.478 -3.965,-28.436 -5.47,-27.121C-6.975,-25.805 -11.726,-13.568 -11.726,-13.568C-11.726,-13.568 -61.063,0.771 -61.063,2.275C-61.063,3.232 -49.991,8.397 -32.003,11.88L11.691,-14.432L14.582,-25.147C14.582,-25.147 20.705,-30.59 25.468,-34.162C30.23,-37.733 32.611,-41.986 32.611,-41.986C32.611,-41.986 37.374,-40.115 38.564,-41.645C39.755,-43.176 32.781,-52.871 32.271,-53.891C31.761,-54.912 28.869,-66.648 29.21,-68.179C29.55,-69.709 30.4,-73.451 32.101,-73.961C33.802,-74.472 40.265,-76.683 40.605,-77.534C40.945,-78.384 36.013,-75.492 20.535,-78.894C20.535,-78.894 17.134,-80.084 14.582,-79.914C12.031,-79.745 -30.152,-61.04 -30.152,-61.04C-29.783,-59.725 -8.669,-64.816 0,-68.204" style="fill:rgb(83,60,163);fill-rule:nonzero;"/>
            </g>
            <g transform="matrix(1,0,0,1,59.112209,23.528586)">
                <path d="M0,2.519C-6.296,2.519 -13.017,1.056 -13.365,0.979C-13.62,0.923 -13.781,0.67 -13.726,0.415C-13.668,0.16 -13.418,0 -13.161,0.055C-13.056,0.078 -2.634,2.348 4.262,1.286C4.518,1.25 4.762,1.423 4.801,1.681C4.841,1.939 4.663,2.181 4.405,2.221C3.026,2.433 1.525,2.519 0,2.519" style="fill:rgb(17,16,19);fill-rule:nonzero;"/>
            </g>
            <g transform="matrix(-0.30169,0.953406,0.953406,0.30169,30.072314,102.405545)">
                <path d="M-29.612,13.853L-20.013,13.853L-7.422,-20.827C-7.422,-20.827 -20.521,-19.989 -22.23,-18.951L-29.612,13.853Z" style="fill:rgb(17,16,19);fill-rule:nonzero;"/>
            </g>
            <g transform="matrix(-0.179876,-0.983689,-0.983689,0.179876,76.262326,74.843156)">
                <path d="M-13.003,-22.454C-14.939,-19.415 -26.151,-14.692 -26.151,-14.692L-13.003,9.796L-4.819,7.203L-13.003,-22.454Z" style="fill:rgb(17,16,19);fill-rule:nonzero;"/>
            </g>
            <g transform="matrix(0,-1,-1,0,58.910109,73.115486)">
                <path d="M-12.312,-12.312C-19.111,-12.312 -24.623,-6.8 -24.623,0.001C-24.623,6.799 -19.111,12.312 -12.312,12.312C-5.513,12.312 0.001,6.799 0.001,0.001C0.001,-6.8 -5.513,-12.312 -12.312,-12.312" style="fill:rgb(17,16,19);fill-rule:nonzero;"/>
            </g>
            <g transform="matrix(0,-1,-1,0,60.261009,73.434586)">
                <path d="M-12.091,-12.091C-18.768,-12.091 -24.181,-6.678 -24.181,0C-24.181,6.677 -18.768,12.091 -12.091,12.091C-5.414,12.091 0,6.677 0,0C0,-6.678 -5.414,-12.091 -12.091,-12.091" style="fill:rgb(245,174,48);fill-rule:nonzero;"/>
            </g>
            <g transform="matrix(0,-1,-1,0,60.261209,75.652586)">
                <path d="M-9.872,-9.872C-15.324,-9.872 -19.745,-5.452 -19.745,0.001C-19.745,5.453 -15.324,9.872 -9.872,9.872C-4.42,9.872 -0,5.453 -0,0.001C-0,-5.452 -4.42,-9.872 -9.872,-9.872" style="fill:rgb(245,155,48);fill-rule:nonzero;"/>
            </g>
            <g transform="matrix(1,0,0,1,70.129809,85.639086)">
                <path d="M0,-0.113C0,5.338 -4.42,9.758 -9.871,9.758C-10.799,9.758 -11.707,9.626 -12.56,9.38C-12.077,9.455 -11.585,9.493 -11.083,9.493C-5.632,9.493 -1.212,5.074 -1.212,-0.378C-1.212,-4.883 -4.24,-8.688 -8.367,-9.871C-3.635,-9.142 0,-5.053 0,-0.113" style="fill:rgb(245,155,48);fill-rule:nonzero;"/>
            </g>
        </g>
        <g id="newYearHat" transform="matrix(0.341169,-0.071833,0.071833,0.341169,23.667566,35.701228)">
            <g transform="matrix(0,-1,-1,0,50.0005,31.08445)">
                <path d="M-72.751,-72.749C-65.511,-72.749 -59.644,-40.177 -59.644,0.001C-59.644,40.18 -65.511,72.751 -72.751,72.751C-79.989,72.751 -85.856,40.18 -85.856,0.001C-85.856,-40.177 -79.989,-72.749 -72.751,-72.749" style="fill:rgb(34,34,34);fill-rule:nonzero;"/>
            </g>
            <g transform="matrix(1,0,0,1,0.8594,103.17005)">
                <path d="M0,-74.257L9.675,-7.111C9.675,-3.184 27.345,0 49.141,0C70.938,0 88.605,-3.184 88.605,-7.111L98.281,-74.257L0,-74.257Z" style="fill:rgb(34,34,34);fill-rule:nonzero;"/>
            </g>
            <g transform="matrix(0,-1,-1,0,50.0007,-20.22795)">
                <path d="M-49.141,-49.14C-44.251,-49.14 -40.287,-27.138 -40.287,0.001C-40.287,27.14 -44.251,49.141 -49.141,49.141C-54.03,49.141 -57.994,27.14 -57.994,0.001C-57.994,-27.138 -54.03,-49.14 -49.141,-49.14" style="fill:rgb(51,51,51);fill-rule:nonzero;"/>
            </g>
            <g transform="matrix(1,0,0,1,91.5,103.16535)">
                <path d="M0,-21.18L-2.029,-7.111C-2.029,-3.18 -19.699,0 -41.5,0C-63.3,0 -80.96,-3.18 -80.96,-7.111L-80.97,-7.111L-83,-21.18C-74.28,-18.71 -58.95,-17.071 -41.5,-17.071C-24.05,-17.071 -8.72,-18.71 0,-21.18" style="fill:rgb(201,164,86);fill-rule:nonzero;"/>
            </g>
        </g>
    </g>
</svg>
