<svg version="1.2" xmlns="http://www.w3.org/2000/svg" viewBox="16.00000000000001 33.00000000000001 68 71" width="69" height="71">
	<style>
		.s0 { fill: #f7b491 } 
		.s1 { fill: #f8ac85 } 
		.s2 { fill: #f2b89d } 
		.s3 { fill: #f48a73 } 
		.s4 { fill: #231f20 } 
		.s5 { fill: #000001 } 
		.s6 { fill: #f27774 } 
		.s7 { fill: #372a27 } 
		.s8 { fill: #716558 } 
		.s9 { fill: #181111 } 
		.s10 { fill: #fefefe } 
		.s11 { display: none;fill: none;stroke: #231f20;stroke-miterlimit:10 } 
	</style>
	<g id="Boy 1 ">
		<path id="&lt;Path&gt;" class="s0" d="m69.42 79.73c0 0 3.65-0.92 5.32 1.67 1.67 2.58 1.45 7.25-1.02 8.74-1.91 1.16-7.11 0.6-7.11 0.6z"/>
		<path id="&lt;Path&gt;" class="s1" d="m70.25 82.27c0 0 1.96-0.49 2.86 0.9 0.9 1.39 0.78 3.9-0.55 4.7-1.03 0.62-3.82 0.32-3.82 0.32z"/>
		<path id="&lt;Path&gt;" class="s0" d="m28.11 79.73c0 0-3.61-0.92-5.27 1.67-1.65 2.58-1.42 7.25 1.02 8.74 1.89 1.16 7.03 0.6 7.03 0.6z"/>
		<path id="&lt;Path&gt;" class="s1" d="m27.29 82.27c0 0-1.94-0.49-2.83 0.9-0.89 1.39-0.77 3.9 0.54 4.7 1.02 0.62 3.79 0.32 3.79 0.32z"/>
		<path id="&lt;Path&gt;" class="s2" d="m71.1 65.52c0 0 0.38 17.32 0 20.36-0.38 3.04-0.54 6.08-3.58 9.5-3.03 3.42-8.13 4.56-10.6 4.94-2.46 0.38-12.57 0.91-16.6 0-4.02-0.91-7.98-2.28-10.41-4.87-2.43-2.58-3.36-6.52-3.42-9.27-0.05-2.74-0.38-24.55 0-26.14 0.38-1.59 15.83-8.28 21.89-8.35 6.05-0.08 22.72 13.83 22.72 13.83z"/>
		<path id="&lt;Path&gt;" class="s3" d="m37.92 89.98c0 0.96-1.09 1.73-2.43 1.73-1.35 0-2.44-0.77-2.44-1.73 0-0.95 1.09-1.72 2.44-1.72 1.34 0 2.43 0.77 2.43 1.72z"/>
		<path id="&lt;Path&gt;" class="s3" d="m64 89.98c0 0.96-0.97 1.73-2.17 1.73-1.21 0-2.18-0.77-2.18-1.73 0-0.95 0.97-1.72 2.18-1.72 1.2 0 2.17 0.77 2.17 1.72z"/>
		<path id="&lt;Path&gt;" class="s4" d="m55.41 74.08c0 0 0.65-0.22 1.68-0.37 0.51-0.08 1.13-0.13 1.79-0.09q0.5 0.03 1.02 0.13 0.53 0.1 1.04 0.32c0.36 0.14 0.63 0.28 0.95 0.44q0.47 0.22 0.9 0.48c0.55 0.35 1.03 0.77 1.38 1.18 0.36 0.41 0.6 0.81 0.7 1.12 0.11 0.31 0.12 0.49 0.12 0.49l-0.09 0.04c0 0-0.12-0.13-0.33-0.33q-0.33-0.31-0.93-0.73-0.62-0.4-1.42-0.9-0.38-0.26-0.79-0.54c-0.26-0.18-0.58-0.39-0.84-0.53-1.1-0.61-2.48-0.72-3.48-0.74-1.01 0-1.68 0.13-1.68 0.13z"/>
		<path id="&lt;Path&gt;" class="s4" d="m43.16 75.57c0 0-0.64-0.28-1.65-0.45q-0.78-0.14-1.74-0.18-0.48-0.01-0.98 0.01-0.49 0.03-1.01 0.1c-0.65 0.1-1.28 0.3-1.86 0.5q-0.89 0.27-1.61 0.55c-0.93 0.36-1.58 0.67-1.58 0.67l-0.07-0.07c0 0 0.37-0.66 1.27-1.3 0.44-0.32 1.01-0.64 1.67-0.85q0.5-0.14 1.04-0.21 0.54-0.07 1.09-0.09c0.33-0.01 0.71-0.01 1.06 0.01q0.53 0.04 1.03 0.11c0.66 0.09 1.27 0.24 1.77 0.41 1.01 0.33 1.62 0.7 1.62 0.7z"/>
		<path id="&lt;Path&gt;" class="s5" d="m43.54 91h10.99c0 0 0.66 5.06-2.33 6.58-2.99 1.52-5.37 1.02-6.94-0.56-1.57-1.57-1.72-6.02-1.72-6.02z"/>
		<path id="&lt;Path&gt;" class="s6" d="m54.34 94.47c-1.16-0.74-2.91-1.5-5.23-1.55-2.15-0.04-3.83 0.8-5.02 1.73 0.25 0.94 0.63 1.83 1.17 2.37 1.57 1.58 3.95 2.08 6.94 0.56 1.24-0.63 1.85-1.87 2.14-3.11z"/>
		<path id="&lt;Path&gt;" class="s7" d="m25.66 51.79c0 0 5.43-16.29 24.62-15.49 11.81 0.5 18.67 5.39 23.82 12.62 3.19 4.48 7.33 12.08 7.48 17.1 0.12 3.8 0 6.03 0 6.03 0 0-1.34-2.62-2.96-4.44-1.62-1.83-3.05-2.59-3.05-2.59 0 0 0.43 3.42-0.88 8.55-1.29 5.09-2.94 8.71-2.94 8.71 0 0-2.83-8-7.49-13.06-4.66-5.07-14.48-10.54-14.48-10.54 0 0-0.3 2.81 6.68 8.51 4.63 3.78 6.77 4.67 6.77 4.67 0 0-3.65-0.45-8.2-1.37-4.56-0.91-7.64-2.69-7.64-2.69 0 0 0.58 0.79 1.37 1.62 0.71 0.74 1.37 1.3 1.37 1.3 0 0-5.32-0.54-10.19-2.47-4.86-1.92-9.93-5.82-9.93-5.82 0 0-2.12 5.37-2.83 10.74-0.71 5.37-0.42 10.63-0.42 10.63 0 0-1.5-1.59-2.2-3.31-0.6-1.47-1.11-3.23-1.11-3.23 0 0-0.4 1.13-0.53 1.93-0.13 0.83 0.04 1.98 0.04 1.98 0 0-3.89-4.66-4.29-13.07-0.41-8.41 2.02-11.75 2.63-12.46 0.61-0.71 4.36-3.85 4.36-3.85z"/>
		<path id="&lt;Path&gt;" class="s8" d="m25.2 53.66q-0.55-0.31-0.9-0.72c-1.14 0.98-2.63 2.27-3 2.7q-0.09 0.11-0.24 0.31c1.33 0.64 2.8 1.1 4.14 1.21 2.81 0.23 6.31-1.44 6.31-1.44 0 0-2.89-0.16-6.31-2.06z"/>
		<path id="&lt;Path&gt;" class="s8" d="m74.1 48.92c-2.35-3.31-5.07-6.11-8.45-8.24-0.02 1.7-0.26 3.31-0.71 4.17-0.91 1.75-2.05 2.81-7.22 5.47-5.16 2.66-19.14 4.64-19.14 4.64 0 0 10.18 0.76 15.8 0.76 5.62 0 15.12-0.99 17.7-2.97 1.1-0.84 1.84-2.15 2.33-3.38q-0.16-0.23-0.31-0.45z"/>
		<g id="Ull 9 ">
			<path id="&lt;Path&gt;" class="s9" d="m40.79 83.47c0 2.4-1.19 4.34-2.65 4.34-1.47 0-2.65-1.94-2.65-4.34 0-2.39 1.18-4.33 2.65-4.33 1.46 0 2.65 1.94 2.65 4.33z"/>
			<path id="&lt;Path&gt;" class="s10" d="m39.96 81.93c0 0.58-0.51 1.04-1.15 1.04-0.63 0-1.14-0.46-1.14-1.04 0-0.58 0.51-1.04 1.14-1.04 0.64 0 1.15 0.46 1.15 1.04z"/>
			<path id="&lt;Path&gt;" class="s10" d="m37.94 82.84c0 0.37-0.29 0.66-0.66 0.66-0.36 0-0.65-0.29-0.65-0.66 0-0.36 0.29-0.66 0.65-0.66 0.37 0 0.66 0.3 0.66 0.66z"/>
		</g>
		<g id="Ull 10 ">
			<path id="&lt;Path&gt;" class="s9" d="m60.79 83.47c0 2.4-1.19 4.34-2.65 4.34-1.47 0-2.65-1.94-2.65-4.34 0-2.39 1.18-4.33 2.65-4.33 1.46 0 2.65 1.94 2.65 4.33z"/>
			<path id="&lt;Path&gt;" class="s10" d="m59.96 81.93c0 0.58-0.51 1.04-1.15 1.04-0.63 0-1.14-0.46-1.14-1.04 0-0.58 0.51-1.04 1.14-1.04 0.64 0 1.15 0.46 1.15 1.04z"/>
			<path id="&lt;Path&gt;" class="s10" d="m57.94 82.84c0 0.37-0.29 0.66-0.66 0.66-0.36 0-0.65-0.29-0.65-0.66 0-0.36 0.29-0.66 0.65-0.66 0.37 0 0.66 0.3 0.66 0.66z"/>
		</g>
		<path id="Ull Closed" class="s11" d="m34.32 79.85l8.26 4.16-8.26 3.09"/>
		<path id="Ull Closed" class="s11" d="m63.32 79.57l-8.15 4.15 8.15 3.09"/>
	</g>
</svg>